<svg xmlns="http://www.w3.org/2000/svg" viewBox="0 0 23.121 13.282">
  <defs>
    <style>
      .cls-1 {
        fill: #535353;
      }
    </style>
  </defs>
  <path id="Path_312" data-name="Path 312" class="cls-1" d="M1.247.163A.572.572,0,0,1,1.681,0a.684.684,0,0,1,.461.163L13.065,11.14a.515.515,0,0,1,.217.407.478.478,0,0,1-.217.407l-10.924,11a.736.736,0,0,1-.461.163.616.616,0,0,1-.434-.163L.19,21.9A.49.49,0,0,1,0,21.495a.668.668,0,0,1,.217-.461l9.46-9.46L.217,2.087A.668.668,0,0,1,0,1.626.478.478,0,0,1,.217,1.22Z" transform="translate(23.121) rotate(90)"/>
</svg>
