<svg id="Group_318" data-name="Group 318" xmlns="http://www.w3.org/2000/svg" viewBox="0 0 62.806 62.88">
  <defs>
    <style>
      .cls-1 {
        fill: #fff;
      }
    </style>
  </defs>
  <path id="Path_208" data-name="Path 208" class="cls-1" d="M53.517,38.544A14.973,14.973,0,1,1,38.544,53.517,14.982,14.982,0,0,1,53.517,38.544Zm0,32.39A17.417,17.417,0,1,0,36.1,53.517,17.441,17.441,0,0,0,53.517,70.934Z" transform="translate(-22.097 -22.097)"/>
  <path id="Path_209" data-name="Path 209" class="cls-1" d="M141.316,59.184a1.25,1.25,0,0,1-1.241,1.241,1.225,1.225,0,0,1-1.241-1.241V40.6a1.2,1.2,0,0,0-.349-.853l-2.677-2.677a3.966,3.966,0,0,1-1.164-2.793V18.338a19.485,19.485,0,0,1,6.633-14.624V59.184Zm1.784-59a1.267,1.267,0,0,0-1.28.078,21.892,21.892,0,0,0-9.62,18.115V34.32a6.464,6.464,0,0,0,1.862,4.538l2.289,2.289V59.223a3.685,3.685,0,1,0,7.37,0V1.27A1.069,1.069,0,0,0,143.1.184Z" transform="translate(-80.919 -0.029)"/>
  <path id="Path_210" data-name="Path 210" class="cls-1" d="M54.344,64.44A8.768,8.768,0,0,1,59.7,56.333a1.243,1.243,0,0,0-.97-2.289A11.347,11.347,0,0,0,51.9,64.44a1.222,1.222,0,1,0,2.444,0Z" transform="translate(-31.768 -33.02)"/>
  <path id="Path_211" data-name="Path 211" class="cls-1" d="M78.938,54.283h.039a1.241,1.241,0,1,0,0-2.483H78.9a1.193,1.193,0,0,0-1.2,1.241,1.225,1.225,0,0,0,1.241,1.241Z" transform="translate(-47.557 -31.706)"/>
  <path id="Path_212" data-name="Path 212" class="cls-1" d="M53.652,25.171A20.958,20.958,0,0,1,78.4,29.438a1.179,1.179,0,0,0,.892.388,1.2,1.2,0,0,0,.853-.349,1.229,1.229,0,0,0,.039-1.746,23.726,23.726,0,0,0-7.6-5.353,23.391,23.391,0,0,0-20.055.582,1.24,1.24,0,1,0,1.125,2.211Z" transform="translate(-31.735 -12.487)"/>
  <path id="Path_213" data-name="Path 213" class="cls-1" d="M78.271,113.568a1.186,1.186,0,0,0-1.707.194,20.843,20.843,0,0,1-16.486,7.991,21.126,21.126,0,0,1-11.366-3.336,1.232,1.232,0,1,0-1.358,2.056,23.479,23.479,0,0,0,31.11-5.2,1.194,1.194,0,0,0-.194-1.707Z" transform="translate(-28.658 -69.347)"/>
  <path id="Path_214" data-name="Path 214" class="cls-1" d="M39.564,118.773h0a1.2,1.2,0,0,0-1.746-.155,1.267,1.267,0,0,0-.155,1.746h0l.039.039a1.239,1.239,0,0,0,.931.427,1.334,1.334,0,0,0,.815-.31,1.228,1.228,0,0,0,.116-1.746Z" transform="translate(-22.884 -72.418)"/>
  <path id="Path_215" data-name="Path 215" class="cls-1" d="M10.318,21.063a1.2,1.2,0,0,0-.892,1.164V59.156a1.241,1.241,0,0,1-2.483,0V22.227a1.2,1.2,0,0,0-.892-1.164,5.162,5.162,0,0,1-3.608-4.112H13.887a4.943,4.943,0,0,1-3.569,4.112Zm6.129-4.849V1.241A1.225,1.225,0,0,0,15.206,0a1.25,1.25,0,0,0-1.241,1.241V14.508H11.754V1.241A1.171,1.171,0,0,0,10.551,0,1.25,1.25,0,0,0,9.31,1.241V14.508H7.1V1.241A1.25,1.25,0,0,0,5.857,0a1.217,1.217,0,0,0-1.2,1.241V14.508H2.444V1.241A1.222,1.222,0,1,0,0,1.241V16.214a7.531,7.531,0,0,0,4.538,6.9V59.156a3.685,3.685,0,0,0,7.37,0V23.119a7.613,7.613,0,0,0,4.538-6.9Z"/>
</svg>
