<svg xmlns="http://www.w3.org/2000/svg" xmlns:xlink="http://www.w3.org/1999/xlink" viewBox="0 0 48.484 48.484">
  <defs>
    <style>
      .cls-1 {
        fill: #f7941d;
      }

      .cls-2 {
        clip-path: url(#clip-path);
      }
    </style>
    <clipPath id="clip-path">
      <rect id="Rectangle_86" data-name="Rectangle 86" class="cls-1" width="48.484" height="48.484"/>
    </clipPath>
  </defs>
  <g id="Group_61" data-name="Group 61" class="cls-2" transform="translate(0 0)">
    <path id="Path_136" data-name="Path 136" class="cls-1" d="M43.749,46.558H42.423a4.7,4.7,0,0,0,.947-2.841V39.91h.568a4.586,4.586,0,0,0,2.651-.852v4.659a2.849,2.849,0,0,1-2.841,2.841ZM1.894,43.717V20.962a3.9,3.9,0,0,0,2.083.587H38.636a2.849,2.849,0,0,1,2.841,2.841v3.769H34.63a.947.947,0,0,0,0,1.894h9.716a4.135,4.135,0,0,0,2.244-.663v5.966a2.659,2.659,0,0,1-2.651,2.651H24.053a3.977,3.977,0,1,1,0-7.954h2.869a.947.947,0,0,0,0-1.894H24.053a5.871,5.871,0,1,0,0,11.742H41.476v3.816a2.846,2.846,0,0,1-2.794,2.841H6.439V35.9a.947.947,0,0,0-1.894,0V46.548a2.838,2.838,0,0,1-2.651-2.831ZM3.977,15.5H5.786L4.668,19.664H3.977a2.083,2.083,0,0,1,0-4.167ZM11.344,2.08,23.058,5.214l-.994,1L15.947,4.58a.953.953,0,0,0-1.165.672,1.941,1.941,0,0,1-.919,1.193,1.966,1.966,0,0,1-1.5.2.942.942,0,0,0-1.155.672l-3.3,12.348H6.638L11.344,2.08ZM28.7,2.25,41.088,14.636l-5,5H34.355l2.263-2.263a.943.943,0,0,0,0-1.335,1.972,1.972,0,0,1,0-2.784.943.943,0,0,0,0-1.335L31.429,6.729a.943.943,0,0,0-1.335,0,1.972,1.972,0,0,1-2.784,0,.943.943,0,0,0-1.335,0L13.058,19.636H11.326L25.558,5.394h0L28.7,2.25ZM14.327,13.945l-4.006,4.006,2.509-9.356a3.812,3.812,0,0,0,1.989-.521,3.737,3.737,0,0,0,1.439-1.458L20.52,7.761l-6.193,6.184Zm6,5.691a2.624,2.624,0,0,1,4.886,0ZM34.7,16.615l-3.021,3.021H27.187a4.515,4.515,0,0,0-8.826,0H15.738L26.723,8.642a3.881,3.881,0,0,0,3.949,0l4.015,4.015a3.921,3.921,0,0,0,.009,3.958ZM46.59,18.339v7.585a2.243,2.243,0,0,1-2.244,2.244H43.37V24.4a4.748,4.748,0,0,0-4.64-4.735L42.9,15.5h.843a2.845,2.845,0,0,1,2.85,2.841ZM43.749,13.6H42.726L29.374.243a.954.954,0,0,0-1.345,0L24.611,3.661,10.918,0A.942.942,0,0,0,9.763.669L6.3,13.6H3.977A3.977,3.977,0,0,0,0,17.581V43.717a4.736,4.736,0,0,0,4.735,4.735H43.749a4.736,4.736,0,0,0,4.735-4.735V18.339A4.736,4.736,0,0,0,43.749,13.6Z" transform="translate(0 0.032)"/>
  </g>
</svg>
