<svg xmlns="http://www.w3.org/2000/svg" viewBox="0 0 62.879 62.88">
  <defs>
    <style>
      .cls-1 {
        fill: #fff;
      }
    </style>
  </defs>
  <g id="Group_317" data-name="Group 317" transform="translate(0)">
    <path id="Path_218" data-name="Path 218" class="cls-1" d="M31.7,60.257A28.82,28.82,0,1,1,60.257,31.176,28.863,28.863,0,0,1,31.7,60.257ZM31.176,0a31.44,31.44,0,1,0,31.7,31.177A31.448,31.448,0,0,0,31.176,0Z" transform="translate(0.001 0.001)"/>
    <path id="Path_219" data-name="Path 219" class="cls-1" d="M37.487,50.771l3.6-11.135a1.27,1.27,0,0,0-.2-1.179,1.367,1.367,0,0,0-1.048-.524L31,38,43.971,22.411l-3.6,11.135a1.27,1.27,0,0,0,.2,1.179,1.367,1.367,0,0,0,1.048.524l8.842-.065L37.487,50.771ZM54.451,33.283a1.237,1.237,0,0,0-1.179-.72l-9.89.065,5.174-15.85a1.369,1.369,0,0,0-.589-1.572,1.241,1.241,0,0,0-1.637.327L27.138,38.523a1.318,1.318,0,0,0-.2,1.375,1.237,1.237,0,0,0,1.179.72l9.89-.065L32.837,56.4a1.369,1.369,0,0,0,.589,1.572.762.762,0,0,0,.655.131,1.393,1.393,0,0,0,.982-.458L54.189,34.593a1.079,1.079,0,0,0,.262-1.31Z" transform="translate(-9.257 -5.184)"/>
    <path id="Path_220" data-name="Path 220" class="cls-1" d="M28.825,10.29a1.31,1.31,0,0,0-1.637-.917A26.389,26.389,0,0,0,8.127,37.406a1.34,1.34,0,0,0,1.31,1.179h.131a1.321,1.321,0,0,0,1.179-1.441,23.813,23.813,0,0,1,17.16-25.217,1.31,1.31,0,0,0,.917-1.637Z" transform="translate(-2.756 -3.216)"/>
    <path id="Path_221" data-name="Path 221" class="cls-1" d="M76.871,43.276a1.316,1.316,0,0,0-2.62.262A23.716,23.716,0,0,1,57.09,68.689a1.337,1.337,0,0,0,.327,2.62.59.59,0,0,0,.327-.065A26.152,26.152,0,0,0,76.085,52.577a24.938,24.938,0,0,0,.786-9.3Z" transform="translate(-19.363 -14.522)"/>
    <path id="Path_222" data-name="Path 222" class="cls-1" d="M11.862,56.69a1.287,1.287,0,0,0-2.489.655c0,.131.065.2.065.327a1.318,1.318,0,0,0,1.244.982.59.59,0,0,0,.327-.065,1.31,1.31,0,0,0,.917-1.637c0-.065-.065-.2-.065-.262Z" transform="translate(-3.216 -19.225)"/>
    <path id="Path_223" data-name="Path 223" class="cls-1" d="M82.7,37.773a1.318,1.318,0,0,0,1.244.982.59.59,0,0,0,.327-.065,1.27,1.27,0,0,0,.917-1.572c0-.131-.065-.2-.065-.327a1.327,1.327,0,1,0-2.554.72.5.5,0,0,1,.131.262Z" transform="translate(-28.472 -12.359)"/>
  </g>
</svg>
