<svg xmlns="http://www.w3.org/2000/svg" viewBox="0 0 33.552 33.333"><defs><style>.a{fill:#00a79d;}</style></defs><g transform="translate(0 -1.666)"><g transform="translate(0 1.666)"><g transform="translate(0 0)"><path class="a" d="M33.14,12.014,22.049,4.878a.477.477,0,0,0-.516.8l10.929,7.032H29.914l-12.441-8a1.292,1.292,0,0,0-1.394,0l-12.441,8H1.09L16.776,2.619,19,4.048a.477.477,0,1,0,.516-.8L17.291,1.817a.954.954,0,0,0-1.03,0L.413,12.014A.9.9,0,0,0,.9,13.665H3.3v3.082a.79.79,0,0,0,.626.772v.839a.79.79,0,0,0,.789.789h.066v5.84a.477.477,0,0,0,.953,0V18.67a.477.477,0,0,0-.477-.477H4.881v-.658H8.257v.658H7.879a.477.477,0,0,0-.477.477V29.2a.477.477,0,0,0,.477.477h.378v.715H4.881v-.715h.378a.477.477,0,0,0,.477-.477V27.982a.477.477,0,1,0-.953,0v.742H4.717a.79.79,0,0,0-.789.789v.839a.79.79,0,0,0-.626.772v.962H1.613a.957.957,0,0,0-.956.956v1A.957.957,0,0,0,1.613,35H31.939a.957.957,0,0,0,.956-.956v-1a.957.957,0,0,0-.956-.956H30.251v-.962a.79.79,0,0,0-.626-.772v-.839a.79.79,0,0,0-.789-.789H28.77V19.146h.066a.79.79,0,0,0,.789-.789v-.839a.79.79,0,0,0,.626-.772V13.665h2.4a.9.9,0,0,0,.485-1.65ZM16.595,5.509a.336.336,0,0,1,.363,0l11.195,7.2H5.4ZM4.255,13.665H29.3v1.166H4.255ZM19.417,30.352v-.839a.79.79,0,0,0-.789-.789h-.066V19.147h.066a.79.79,0,0,0,.789-.789v-.839a.79.79,0,0,0,.626-.772v-.962h3.672v.962a.79.79,0,0,0,.626.772v.839a.79.79,0,0,0,.789.789H25.2v9.577h-.066a.79.79,0,0,0-.789.789v.839a.79.79,0,0,0-.626.772v.962H20.044v-.962A.79.79,0,0,0,19.417,30.352Zm-10.207,0v-.839a.79.79,0,0,0-.789-.789H8.355V19.147h.066a.79.79,0,0,0,.789-.789v-.839a.79.79,0,0,0,.626-.772v-.962h3.672v.962a.79.79,0,0,0,.626.772v.839a.79.79,0,0,0,.789.789h.066v9.577h-.066a.79.79,0,0,0-.789.789v.839a.79.79,0,0,0-.626.772v.962H9.836v-.962A.79.79,0,0,0,9.21,30.352Zm8.876-.675h.378v.715H15.088v-.715h.378a.477.477,0,0,0,.477-.477V18.67a.477.477,0,0,0-.477-.477h-.378v-.658h3.376v.658h-.378a.477.477,0,0,0-.477.477V29.2A.477.477,0,0,0,18.086,29.677ZM14.612,16.582h-.15v-.8H19.09v.8H14.612Zm-.15,14.74a.476.476,0,0,0,.148.024h4.329a.476.476,0,0,0,.152-.025v.766H14.462ZM4.4,16.582h-.15v-.8H8.883v.8H4.4Zm-.15,14.739a.475.475,0,0,0,.15.024H8.734a.475.475,0,0,0,.15-.024v.765H4.255v-.765Zm27.687,1.72v1h0l-30.328,0,0-1Zm-2.795-1.7a.476.476,0,0,0,.151-.025v.765H24.669v-.764a.475.475,0,0,0,.148.024ZM25.673,18.193H25.3v-.658h3.376v.658h-.378a.477.477,0,0,0-.477.477V29.2a.477.477,0,0,0,.477.477h.378v.715H25.3v-.715h.378a.477.477,0,0,0,.477-.477V18.67A.477.477,0,0,0,25.673,18.193ZM29.3,16.582H24.669v-.8H29.3v.8Z" transform="translate(0 -1.666)"/></g></g></g></svg>