<svg id="Group_315" data-name="Group 315" xmlns="http://www.w3.org/2000/svg" viewBox="0 0 62.879 62.88">
  <defs>
    <style>
      .cls-1 {
        fill: #fff;
      }
    </style>
  </defs>
  <path id="Path_194" data-name="Path 194" class="cls-1" d="M22.072,31.137l2.508,2.508a.913.913,0,0,0-.44.264,1.169,1.169,0,0,0,0,1.628l2.552,2.552-1.54,1.54-1.54-1.54a1.151,1.151,0,1,0-1.628,1.628l1.54,1.54-1.54,1.54-2.552-2.552A1.151,1.151,0,0,0,17.8,41.873l2.552,2.552-1.54,1.54-1.54-1.54a1.151,1.151,0,0,0-1.628,1.628l1.54,1.54-1.54,1.54L13.1,46.581a1.151,1.151,0,0,0-1.628,1.628l2.552,2.552L12.48,52.3l-1.54-1.54a1.151,1.151,0,1,0-1.628,1.628l1.54,1.54-2.2,2.2L2.8,50.365,22.072,31.137ZM12.216,7.508,7.508,12.216,5.4,5.4l6.82,2.112ZM50.365,2.8l5.808,5.808-2.464,2.464L51.157,8.52a1.151,1.151,0,0,0-1.628,1.628L52.081,12.7l-1.54,1.54L49,12.7a1.151,1.151,0,1,0-1.628,1.628l1.54,1.54-1.54,1.54-2.552-2.552a1.151,1.151,0,1,0-1.628,1.628l2.552,2.552-1.54,1.54-1.54-1.54a1.151,1.151,0,0,0-1.628,1.628l1.54,1.54-1.54,1.584-2.552-2.552a1.151,1.151,0,0,0-1.628,1.628l2.552,2.552-1.54,1.54-1.54-1.54a1.169,1.169,0,0,0-1.628,0l-.088.088-3.432-3.432L50.365,2.8ZM53.4,50.673l-2.684,2.684c-.836.836-2.024,1.1-2.6.528L46.1,51.861l5.808-5.808,2.024,2.024c.528.572.308,1.76-.528,2.6Zm-30.537-22h0L8.608,14.416l5.808-5.808,14.3,14.3L50.233,44.425l-2.112,2.112L16.572,14.944a1.151,1.151,0,0,0-1.628,1.628L46.493,48.121l-2.112,2.112L22.865,28.673ZM7.816,58.637a1.2,1.2,0,0,0,.836.352,1.287,1.287,0,0,0,.836-.352l7-7h0L29.509,38.617l16.94,16.94a3.42,3.42,0,0,0,2.464.968,5.049,5.049,0,0,0,3.432-1.5l2.684-2.684c1.76-1.76,1.98-4.4.528-5.852l-2.86-2.86h0l-14.08-14.08L58.681,9.488a1.169,1.169,0,0,0,0-1.628L51.2.38a1.169,1.169,0,0,0-1.628,0L29.509,20.4,15.208,6.144l-.088-.088h-.044c-.044,0-.044-.044-.088-.044h-.044c-.044,0-.044-.044-.088-.044h-.044c-.044,0-.088-.044-.132-.044h0L3.988,2.536a1.129,1.129,0,0,0-1.144.308,1.23,1.23,0,0,0-.308,1.144l3.3,10.736h0a.154.154,0,0,0,.044.088v.044c0,.044.044.044.044.088v.044c0,.044.044.044.044.088v.044c.044.044.044.088.088.088L20.4,29.509.38,49.573a1.169,1.169,0,0,0,0,1.628l7.436,7.436Z" transform="translate(-0.05 -0.05)"/>
  <path id="Path_195" data-name="Path 195" class="cls-1" d="M64.1,7.278V12a1.278,1.278,0,0,0,2.555,0V7.278A1.269,1.269,0,0,0,65.378,6,1.3,1.3,0,0,0,64.1,7.278Z" transform="translate(-32.623 -3.076)"/>
  <path id="Path_196" data-name="Path 196" class="cls-1" d="M52.8,11.482a1.364,1.364,0,0,0-.688,1.72l1.229,2.85a1.277,1.277,0,0,0,1.179.786,1.746,1.746,0,0,0,.491-.1,1.364,1.364,0,0,0,.688-1.72l-1.179-2.85a1.294,1.294,0,0,0-1.72-.688Z" transform="translate(-26.482 -5.806)"/>
  <path id="Path_197" data-name="Path 197" class="cls-1" d="M75.111,12.17l-1.229,2.85a1.294,1.294,0,0,0,.688,1.72,1.746,1.746,0,0,0,.491.1,1.277,1.277,0,0,0,1.179-.786L77.47,13.2a1.294,1.294,0,0,0-.688-1.72,1.241,1.241,0,0,0-1.671.688Z" transform="translate(-37.54 -5.806)"/>
  <path id="Path_198" data-name="Path 198" class="cls-1" d="M6,65.878a1.269,1.269,0,0,0,1.278,1.278H12A1.278,1.278,0,1,0,12,64.6H7.278A1.3,1.3,0,0,0,6,65.878Z" transform="translate(-3.076 -32.878)"/>
  <path id="Path_199" data-name="Path 199" class="cls-1" d="M15.049,74.282,12.2,75.511a1.364,1.364,0,0,0-.688,1.72,1.277,1.277,0,0,0,1.179.786,1.746,1.746,0,0,0,.491-.1l2.85-1.229a1.364,1.364,0,0,0,.688-1.72,1.227,1.227,0,0,0-1.671-.688Z" transform="translate(-5.835 -37.744)"/>
  <path id="Path_200" data-name="Path 200" class="cls-1" d="M16.053,53.811,13.2,52.582A1.31,1.31,0,0,0,12.17,54.99l2.85,1.229a1.746,1.746,0,0,0,.491.1,1.277,1.277,0,0,0,1.179-.786,1.3,1.3,0,0,0-.639-1.72Z" transform="translate(-5.806 -26.708)"/>
  <path id="Path_201" data-name="Path 201" class="cls-1" d="M65.878,120.473a1.269,1.269,0,0,0,1.278-1.278v-4.718a1.269,1.269,0,0,0-1.278-1.278,1.3,1.3,0,0,0-1.278,1.278V119.2a1.3,1.3,0,0,0,1.278,1.278Z" transform="translate(-32.878 -57.594)"/>
  <path id="Path_202" data-name="Path 202" class="cls-1" d="M76.619,112.3a1.31,1.31,0,0,0-2.408,1.032l1.229,2.85a1.277,1.277,0,0,0,1.179.786,1.746,1.746,0,0,0,.491-.1,1.364,1.364,0,0,0,.688-1.72l-1.179-2.85Z" transform="translate(-37.721 -56.742)"/>
  <path id="Path_203" data-name="Path 203" class="cls-1" d="M53.711,116.939a1.277,1.277,0,0,0,1.179-.786l1.229-2.85a1.31,1.31,0,1,0-2.408-1.032l-1.229,2.85a1.294,1.294,0,0,0,.688,1.72,2.536,2.536,0,0,0,.541.1Z" transform="translate(-26.657 -56.713)"/>
  <path id="Path_204" data-name="Path 204" class="cls-1" d="M120.473,65.478A1.269,1.269,0,0,0,119.2,64.2h-4.718a1.278,1.278,0,0,0,0,2.555H119.2a1.3,1.3,0,0,0,1.278-1.278Z" transform="translate(-57.594 -32.674)"/>
  <path id="Path_205" data-name="Path 205" class="cls-1" d="M112.839,55.846a1.746,1.746,0,0,0,.491-.1l2.85-1.229a1.31,1.31,0,1,0-1.032-2.408l-2.85,1.229a1.364,1.364,0,0,0-.688,1.72,1.345,1.345,0,0,0,1.229.786Z" transform="translate(-56.742 -26.482)"/>
  <path id="Path_206" data-name="Path 206" class="cls-1" d="M112.275,76.19l2.85,1.229a1.746,1.746,0,0,0,.491.1,1.277,1.277,0,0,0,1.179-.786,1.294,1.294,0,0,0-.688-1.72l-2.85-1.229a1.294,1.294,0,0,0-1.72.688,1.438,1.438,0,0,0,.737,1.72Z" transform="translate(-56.718 -37.489)"/>
  <path id="Path_207" data-name="Path 207" class="cls-1" d="M27.9,26.5a1.3,1.3,0,0,0,0,2.6,1.3,1.3,0,0,0,0-2.6Z" transform="translate(-13.578 -13.501)"/>
</svg>
