<svg xmlns="http://www.w3.org/2000/svg" viewBox="0 0 48.845 48.792">
  <defs>
    <style>
      .cls-1 {
        fill: #e31837;
      }
    </style>
  </defs>
  <path id="Path_487" data-name="Path 487" class="cls-1" d="M48.556.289A.954.954,0,0,0,47.873,0H24.422a.941.941,0,0,0-.945.945V3.676L14.443,6.092a.96.96,0,0,0-.683,1.155l4.674,17.489-4.044,4.044a2.877,2.877,0,0,0-2.363-1.261H2.862A2.869,2.869,0,0,0,0,30.383V45.93a2.869,2.869,0,0,0,2.862,2.862h9.165a2.87,2.87,0,0,0,2.784-2.18l1.129,1a4.788,4.788,0,0,0,3.151,1.182H47.9a.941.941,0,0,0,.945-.945V.945A.9.9,0,0,0,48.556.289ZM23.477,21.612l-1.733-6.434a4.437,4.437,0,0,0,1.733-1.6Zm0-15.966V9.191l-.63.184a.976.976,0,0,0-.578.446,1.006,1.006,0,0,0-.105.735,2.577,2.577,0,0,1-1.812,3.151.976.976,0,0,0-.578.446,1.006,1.006,0,0,0-.105.735l3.7,13.734H21.455l-.972-3.86a.814.814,0,0,0-.158-.341L15.835,7.694ZM12.027,46.927H2.862a.941.941,0,0,1-.945-.945V30.436a.941.941,0,0,1,.945-.945H6.486V40.467a.945.945,0,0,0,1.891,0V29.491H12a.941.941,0,0,1,.945.945V45.982A.9.9,0,0,1,12.027,46.927Zm7.064,0a3.031,3.031,0,0,1-1.917-.709L14.863,44.2V31.014l4.175-4.175.762,2.967a.954.954,0,0,0,.919.709h18.75a1.339,1.339,0,1,1,0,2.679H29.858a.945.945,0,0,0,0,1.891H42.463a1.339,1.339,0,0,1,0,2.679H29.858a.945.945,0,0,0,0,1.891H40.415a1.339,1.339,0,1,1,0,2.679H29.858a.945.945,0,0,0,0,1.891h7.3a1.339,1.339,0,1,1,0,2.679l-18.067.026Zm27.836,0h-6.8a3.249,3.249,0,0,0,0-2.679h.289a3.251,3.251,0,0,0,2.915-4.7,3.245,3.245,0,0,0,2.39-3.125,3.3,3.3,0,0,0-.63-1.943V22.4a.945.945,0,0,0-1.891,0V33.246a3.028,3.028,0,0,0-.683-.079h-.026a3.316,3.316,0,0,0,.289-1.339,3.256,3.256,0,0,0-3.256-3.256H38a4.569,4.569,0,1,0-3.571,0H29.149V10.478a4.457,4.457,0,0,0,3.414-3.414h7.169a4.457,4.457,0,0,0,3.414,3.414v2.967a.945.945,0,1,0,1.891,0V9.638a.941.941,0,0,0-.945-.945,2.578,2.578,0,0,1-2.574-2.574.941.941,0,0,0-.945-.945H31.7a.941.941,0,0,0-.945.945,2.578,2.578,0,0,1-2.574,2.574.941.941,0,0,0-.945.945V28.624H25.368V1.917h21.56v45.01ZM36.161,27.075a2.652,2.652,0,1,1,2.652-2.652A2.645,2.645,0,0,1,36.161,27.075Z" transform="translate(0)"/>
</svg>
