<svg id="Group_314" data-name="Group 314" xmlns="http://www.w3.org/2000/svg" viewBox="0 0 61.141 62.88">
  <defs>
    <style>
      .cls-1 {
        fill: #fff;
      }
    </style>
  </defs>
  <path id="Path_189" data-name="Path 189" class="cls-1" d="M44.483,60.372l2.489-6.964,8.1,3.12H55.1a5.4,5.4,0,0,1,3.372,3.813l-13.991.032Zm-7.689,0,.63-10.651,7.279,2.8-2.8,7.846h-5.1Zm-18.213,0L15.808,52.62l7.247-2.9.63,10.651Zm-12.6-3.844h0l7.563-2.994L16,60.372H2.6a5.392,5.392,0,0,1,3.372-3.844ZM18.991,36.172V25.931A11.38,11.38,0,0,1,29.7,28.8a1.217,1.217,0,0,0,1.7,0,11.382,11.382,0,0,1,7.972-3.214,10.926,10.926,0,0,1,2.678.315V36.14A10.94,10.94,0,0,1,31.122,47.074h-1.2a10.913,10.913,0,0,1-10.934-10.9ZM15.3,35.415V32.422a.565.565,0,0,1,.567-.567h.693v4.128h-.693a.565.565,0,0,1-.567-.567Zm-8.35-20.86,23.6-11.974L54.188,14.587,45.649,18.9v-4.38a1.22,1.22,0,0,0-.851-1.166,51.128,51.128,0,0,0-9.989-2.048,1.235,1.235,0,0,0-.252,2.458,55.277,55.277,0,0,1,8.634,1.67v8.224a13.9,13.9,0,0,0-12.636,2.615,13.811,13.811,0,0,0-8.823-3.151,14.333,14.333,0,0,0-3.844.536V15.437a52.275,52.275,0,0,1,8.791-1.7,1.24,1.24,0,0,0,1.1-1.355,1.2,1.2,0,0,0-1.323-1.071,51.73,51.73,0,0,0-10.146,2.08,1.22,1.22,0,0,0-.851,1.166V18.9L6.953,14.555Zm50.48,15.755H56.362V24.45a.536.536,0,0,1,1.071,0v5.861ZM45.207,31.855a.565.565,0,0,1,.567.567v2.994a.565.565,0,0,1-.567.567h-.693V31.855ZM34.746,53.471,31.311,50.7a1.23,1.23,0,0,0-1.513-.032L25.765,53.66l-.252-4.853a13.031,13.031,0,0,0,4.443.756h1.2A12.746,12.746,0,0,0,35,49l-.252,4.475Zm-8.6,6.9-.221-3.75,4.6-3.4L34.557,56.5l-.221,3.876Zm34.977,1.1-.032-.441a7.832,7.832,0,0,0-5.1-6.775L38.37,47.452a13.4,13.4,0,0,0,5.987-9.012h.882a3.026,3.026,0,0,0,3.025-3.025V32.422A3.026,3.026,0,0,0,45.239,29.4h-.693V26.624a1.721,1.721,0,0,0,.567-.189,1.217,1.217,0,0,0,.567-1.04v-3.75L55.7,16.572V21.74a3,3,0,0,0-1.765,2.741v7.09A1.211,1.211,0,0,0,55.165,32.8h3.529a1.211,1.211,0,0,0,1.229-1.229V24.45a3,3,0,0,0-1.765-2.741V14.555a1.237,1.237,0,0,0-.662-1.1L31.122.092a1.143,1.143,0,0,0-1.1,0L3.676,13.484a1.25,1.25,0,0,0,0,2.206l11.785,5.987v3.75a1.3,1.3,0,0,0,.567,1.04,1.551,1.551,0,0,0,.536.189v2.773h-.693a3.026,3.026,0,0,0-3.025,3.025v2.994a3.026,3.026,0,0,0,3.025,3.025h.882a13.339,13.339,0,0,0,5.766,8.854L5.126,54.259A7.757,7.757,0,0,0,.053,61l-.063.473A1.281,1.281,0,0,0,.3,62.42a1.24,1.24,0,0,0,.914.41H59.891a1.294,1.294,0,0,0,.914-.41,1.163,1.163,0,0,0,.315-.945Z" transform="translate(0.015 0.05)"/>
  <path id="Path_190" data-name="Path 190" class="cls-1" d="M94.329,37.758h.063a1.229,1.229,0,1,0,0-2.458h-.063A1.211,1.211,0,0,0,93.1,36.529a1.23,1.23,0,0,0,1.229,1.229Z" transform="translate(-63.759 -24.161)"/>
  <path id="Path_191" data-name="Path 191" class="cls-1" d="M110.018,102.236a1.418,1.418,0,1,0-1.418-1.418,1.432,1.432,0,0,0,1.418,1.418Z" transform="translate(-74.375 -68.063)"/>
  <path id="Path_192" data-name="Path 192" class="cls-1" d="M77.718,99.4a1.418,1.418,0,1,0,1.418,1.418A1.412,1.412,0,0,0,77.718,99.4Z" transform="translate(-52.253 -68.063)"/>
  <path id="Path_193" data-name="Path 193" class="cls-1" d="M93.5,122.229A1.211,1.211,0,0,0,92.275,121h-.063a1.4,1.4,0,0,0-.914.378,1.329,1.329,0,0,1-.662.158,1.437,1.437,0,0,1-.662-.158,1.144,1.144,0,0,0-.882-.378h-.063a1.219,1.219,0,0,0-.63,2.269,3.815,3.815,0,0,0,4.475,0,1.148,1.148,0,0,0,.63-1.04Z" transform="translate(-60.129 -82.856)"/>
</svg>
