<svg xmlns="http://www.w3.org/2000/svg" viewBox="0 0 50.586 62.88">
  <defs>
    <style>
      .cls-1 {
        fill: #fff;
      }
    </style>
  </defs>
  <g id="Group_316" data-name="Group 316" transform="translate(0)">
    <path id="Path_216" data-name="Path 216" class="cls-1" d="M74.386,97.064a3.332,3.332,0,0,1-1.291.786,5.007,5.007,0,0,1-1.235.168,4.378,4.378,0,0,1-1.235-.168,3.284,3.284,0,0,1-1.347-.786,3.749,3.749,0,0,1-.842-3.369,8.715,8.715,0,0,1,2.414-4.435,4.742,4.742,0,0,1,1.011-.842l1.011.842c2.47,2.526,3.2,6.12,1.516,7.8Zm.168-9.544a15.124,15.124,0,0,0-2.077-1.684,1.1,1.1,0,0,0-1.291,0,9.768,9.768,0,0,0-2.077,1.684A10.675,10.675,0,0,0,66.021,93.3a6.211,6.211,0,0,0,1.516,5.5,5.5,5.5,0,0,0,2.414,1.4,6.45,6.45,0,0,0,1.853.225h.056a10.436,10.436,0,0,0,1.853-.225h.056a5.5,5.5,0,0,0,2.414-1.4A6.055,6.055,0,0,0,77.7,93.3a11.576,11.576,0,0,0-3.144-5.783Z" transform="translate(-28.911 -37.553)"/>
    <path id="Path_217" data-name="Path 217" class="cls-1" d="M47.889,41.995H36.942V39.075H47.777l.112,2.919ZM34.528,29.362H30.878a1.3,1.3,0,0,0-1.067.505,12.386,12.386,0,0,1-17.46-.112,1.441,1.441,0,0,0-1.011-.393H2.751V23.018H35.482A10.135,10.135,0,0,1,45.588,33.124V36.38H39.244V34.135a4.756,4.756,0,0,0-4.716-4.772ZM17.516,15.551h7.242v4.716H17.516V15.551Zm1.4-10.611h0a2.246,2.246,0,1,1,4.491,0h0a2.246,2.246,0,1,1-4.491,0Zm-8.085.9A.842.842,0,1,1,11.678,5a.827.827,0,0,1-.842.842ZM31.44,4.1a.842.842,0,1,1-.842.842h0A.863.863,0,0,1,31.44,4.1Zm16.9,32.282V33.124a12.8,12.8,0,0,0-12.8-12.8H27.51V14.2a1.366,1.366,0,0,0-1.347-1.347H22.569V9.769a5,5,0,0,0,3.425-3.425h2.19A3.689,3.689,0,0,0,31.5,8.59,3.618,3.618,0,0,0,35.089,5,3.678,3.678,0,0,0,31.44,1.347a3.488,3.488,0,0,0-3.312,2.246h-2.19a4.966,4.966,0,0,0-9.544,0H14.2a3.689,3.689,0,0,0-3.312-2.246A3.618,3.618,0,0,0,7.3,4.941a3.618,3.618,0,0,0,3.593,3.593A3.488,3.488,0,0,0,14.2,6.288h2.19a5,5,0,0,0,3.425,3.425V12.8H16.225a1.366,1.366,0,0,0-1.347,1.347v6.063H2.751v-.954A1.366,1.366,0,0,0,1.4,17.909,1.476,1.476,0,0,0,0,19.369v13.7a1.366,1.366,0,0,0,1.347,1.347,1.366,1.366,0,0,0,1.347-1.347v-.954h8.085a15.149,15.149,0,0,0,20.6,0h3.032a2.013,2.013,0,0,1,2.021,2.021v2.3a2.768,2.768,0,0,0-2.3,2.695v2.919A2.755,2.755,0,0,0,36.886,44.8H47.833a2.755,2.755,0,0,0,2.751-2.751V39.131a2.684,2.684,0,0,0-2.246-2.751Z"/>
  </g>
</svg>
