<svg xmlns="http://www.w3.org/2000/svg" viewBox="0 0 306.032 66.159">
  <defs>
    <style>
      .cls-1 {
        fill: #1c458c;
      }

      .cls-2 {
        fill: #de1f26;
      }
    </style>
  </defs>
  <g id="Group_533" data-name="Group 533" transform="translate(0)">
    <g id="Group_211" data-name="Group 211" transform="translate(0)">
      <g id="Group_214" data-name="Group 214" transform="translate(0 0)">
        <path id="Path_66" data-name="Path 66" class="cls-1" d="M58.152,7.363a23.848,23.848,0,0,0-7.269.211A18.789,18.789,0,0,1,53.2,4.835c.316-.316-.843-.632-.948-.632A20.868,20.868,0,0,0,40.559,6.837a50.358,50.358,0,0,1-2-5.057c-.105-.421-1.159,0-1.37.211a48.607,48.607,0,0,1-4.109,3.793C31.71,3.887,30.34,2.1,29.287.41,28.971-.011,28.233.3,28.022.621c-.843,1.37-1.9,2.844-2.844,4.214a44.693,44.693,0,0,1-3.16-3.16c-.316-.316-1.159,0-1.37.316-.632,1.58-1.264,3.266-2,4.846A21.381,21.381,0,0,0,6.742,4.2c-.105,0-1.264.316-.948.632A18.789,18.789,0,0,1,8.112,7.574,23.848,23.848,0,0,0,.842,7.363c-.105,0-1.159.421-.737.632A14.889,14.889,0,0,1,6.321,18.32a12.6,12.6,0,0,0,6.216,9.165c.105.105.211.105.316.211-2.739,1.37-4.635,4.635-7.69,4.635-.421,0-.948.316-.737.843a6.548,6.548,0,0,0,7.269,3.477c-.948,1.791-2,3.687-3.793,4.109-.316.105-.948.737-.316.843a21.336,21.336,0,0,0,15.7-2.95c1.475,1.264,3.371,2.318,4.109,4h0V53.506h3.477V41.5a11.418,11.418,0,0,0,4-3.371,21.071,21.071,0,0,0,15.592,2.95c.211,0,1.264-.527.527-.632-2.107-.421-2.95-2.318-3.9-4.109a7.182,7.182,0,0,0,7.164-3.793c.105-.105-.211-.105-.211-.105-2.423,0-3.793-1.686-5.478-3.16a10.566,10.566,0,0,0-2.423-1.58c.105-.105.211-.105.316-.211a12.6,12.6,0,0,0,6.216-9.165A14.536,14.536,0,0,1,58.89,8c.421-.211-.632-.632-.737-.632M51.3,4.835a19.511,19.511,0,0,0-3.055,4.214c-1.686,3.371-1.159,6.532-2,10.008-.843,3.055-2.423,6.11-5.162,7.9a21.094,21.094,0,0,0-2.528.421c-.316,0-.843.105-1.264.105a10.221,10.221,0,0,0-1.791.105,11.115,11.115,0,0,0,3.793-9.481,14.538,14.538,0,0,0-2.423-6.953A20.77,20.77,0,0,1,51.3,4.835ZM37.5,3.044c.527,1.58,1.053,3.16,1.686,4.635A21.189,21.189,0,0,0,36.24,10.1a40.837,40.837,0,0,0-2.423-3.477C35.081,5.467,36.345,4.308,37.5,3.044ZM28.655,1.991q2.686,4.267,5.689,8.217c4.741,6.426,5.478,17.067-3.9,18.857a7.457,7.457,0,0,0-3.055,0c-8.744-1.686-8.744-10.956-4.951-17.7C24.125,8.1,26.548,5.151,28.655,1.991ZM21.6,3.149c.948.948,1.9,2,2.844,2.95C23.6,7.258,22.86,8.311,22.123,9.47c-.737-.632-1.58-1.264-2.423-1.9ZM7.69,4.835a19.535,19.535,0,0,1,13.7,5.689,22.94,22.94,0,0,0-3.16,7.8,9.239,9.239,0,0,0,3.266,9.06c-.421,0-.737-.105-.948-.105h0a22.814,22.814,0,0,0-2.634-.421,13.057,13.057,0,0,1-5.057-7.8c-.843-3.477-.421-6.637-2-10.008A24.457,24.457,0,0,0,7.69,4.835Zm.632,15.7C7.269,17.9,7.69,15.054,6,12.525A20.051,20.051,0,0,0,2,8.1a21.326,21.326,0,0,1,6.848.632,17.532,17.532,0,0,1,2.212,8.007,12.987,12.987,0,0,0,4.951,10.219c-.421,0-.948.105-1.37.105-.105,0-.316.105-.421.105A12.156,12.156,0,0,1,8.322,20.532ZM6.11,33.174a7.6,7.6,0,0,0,3.477-1.9c3.055-2.634,6.11-4,10.113-3.055a6.444,6.444,0,0,0-1.264.527,15.76,15.76,0,0,0-5.478,5.689,11.492,11.492,0,0,0-.632,1.159A6.071,6.071,0,0,1,6.11,33.174ZM19.595,39.6a18.628,18.628,0,0,1-9.9,1.264c3.9-2.423,5.478-10.114,9.587-12.01.105,0,.105,0,.105-.105a.1.1,0,0,0,.105-.105.633.633,0,0,1,.421-.105,5.9,5.9,0,0,1,4.109.527c.105.105.211.105.316.211h0c.316.105.527.211.843.316-2,.737-3.9,2.107-4.214,4.319a4.606,4.606,0,0,0,1.37,3.9A9.47,9.47,0,0,1,19.595,39.6Zm8.955,2.318c-1.159-2.107-3.9-3.266-5.267-5.267-1.9-2.844-.105-5.9,2.95-6.637h.211a5.965,5.965,0,0,1,8.007,6.742C33.817,39.179,30.972,40.97,28.549,41.918Zm17.8-4.214a10.587,10.587,0,0,0,1.686,2.528,3.2,3.2,0,0,0,.737.527,20.812,20.812,0,0,1-9.481-1.37A14.115,14.115,0,0,1,35.5,37.072a7.461,7.461,0,0,0,.527-2.739c0-2.318-1.686-3.9-3.793-4.635.737-.316,1.37-.632,2-.948C39.822,26.01,44.246,33.911,46.353,37.7Zm1.686-7.269a12.566,12.566,0,0,0,3.055,2.212c.421.211,1.791.211,1.686.421-1.475,2.423-3.793,2.844-6.11,2.423-1.58-2.739-3.477-5.478-6.321-7.058a4.967,4.967,0,0,0-1.58-.632A10,10,0,0,1,48.039,30.435ZM52.99,12.525c-1.686,2.528-1.264,5.373-2.318,8.007a12.237,12.237,0,0,1-6,6.742c-.316-.105-.632-.105-1.053-.211a1.793,1.793,0,0,1-.737-.105,13.13,13.13,0,0,0,5.057-10.324,15.017,15.017,0,0,1,2.212-8.007A21.326,21.326,0,0,1,56.993,8,20.592,20.592,0,0,0,52.99,12.525Z" transform="translate(-0.006 0.116)"/>
        <path id="Path_67" data-name="Path 67" class="cls-2" d="M23.335,5.95A36.31,36.31,0,0,1,20.6,3L18.7,7.425a13.71,13.71,0,0,1,2.423,1.9c.632-1.159,1.475-2.212,2.212-3.371" transform="translate(0.994 0.266)"/>
        <path id="Path_68" data-name="Path 68" class="cls-2" d="M15.911,26.564A13.305,13.305,0,0,1,10.96,16.345,15.017,15.017,0,0,0,8.748,8.339,21.378,21.378,0,0,0,1.9,7.6a22.724,22.724,0,0,1,4,4.425c1.686,2.528,1.264,5.373,2.318,8.007a12.2,12.2,0,0,0,5.9,6.637c.105,0,.316-.105.421-.105h1.37" transform="translate(0.095 0.511)"/>
        <path id="Path_69" data-name="Path 69" class="cls-2" d="M12.362,18.922a13.057,13.057,0,0,0,5.057,7.8,11.436,11.436,0,0,1,2.634.421h0c.211,0,.632.105.948.105a9.548,9.548,0,0,1-3.266-9.06,22.941,22.941,0,0,1,3.16-7.8A19.727,19.727,0,0,0,7.2,4.7a19.512,19.512,0,0,1,3.055,4.214c1.686,3.371,1.264,6.532,2.107,10.008" transform="translate(0.379 0.357)"/>
        <path id="Path_70" data-name="Path 70" class="cls-2" d="M37.473,7.535c-.632-1.58-1.159-3.055-1.686-4.635C34.628,4.059,33.259,5.218,32.1,6.377c.843,1.159,1.686,2.318,2.423,3.477.948-.737,1.9-1.58,2.95-2.318" transform="translate(1.711 0.26)"/>
        <path id="Path_71" data-name="Path 71" class="cls-2" d="M47.969,8.231a17.532,17.532,0,0,0-2.212,8.007A13.13,13.13,0,0,1,40.7,26.562a1.793,1.793,0,0,1,.737.105c.316.105.737.105,1.054.211a12.2,12.2,0,0,0,6-6.742c1.053-2.634.632-5.478,2.318-8.007a20.051,20.051,0,0,1,4-4.425,21.059,21.059,0,0,0-6.848.527" transform="translate(2.171 0.513)"/>
        <path id="Path_72" data-name="Path 72" class="cls-2" d="M35.07,11.026a18.331,18.331,0,0,1,2.423,6.953A11.239,11.239,0,0,1,33.7,27.461a10.221,10.221,0,0,1,1.791-.105c.421-.105.843-.105,1.264-.211a21.1,21.1,0,0,1,2.528-.421,12.7,12.7,0,0,0,5.162-7.9c.843-3.477.421-6.637,2-10.008A17.243,17.243,0,0,1,49.5,4.6,20.434,20.434,0,0,0,35.07,11.026" transform="translate(1.796 0.351)"/>
        <path id="Path_73" data-name="Path 73" class="cls-2" d="M18.126,27.341a6.444,6.444,0,0,1,1.264-.527c-4-.948-7.058.527-10.113,3.055a7.6,7.6,0,0,1-3.477,1.9,5.98,5.98,0,0,0,6.11,2.423c.211-.421.421-.737.632-1.159a16.97,16.97,0,0,1,5.583-5.689" transform="translate(0.304 1.524)"/>
        <path id="Path_74" data-name="Path 74" class="cls-2" d="M20.572,32.581c.316-2.212,2.212-3.582,4.214-4.319-.316-.105-.527-.211-.843-.316h0c-.105-.105-.211-.105-.316-.211a5.9,5.9,0,0,0-4.109-.527c-.105,0-.316.105-.421.105a1828.57,1828.57,0,0,0-.211.211c-4.109,1.9-5.583,9.692-9.587,12.01a18.628,18.628,0,0,0,9.9-1.264,16.952,16.952,0,0,0,2.95-1.791,4.294,4.294,0,0,1-1.58-3.9" transform="translate(0.491 1.552)"/>
        <path id="Path_75" data-name="Path 75" class="cls-2" d="M36.8,26.412a4.966,4.966,0,0,1,1.58.632c2.844,1.58,4.741,4.319,6.321,7.058,2.318.421,4.635,0,6.11-2.423.105-.211-1.264-.211-1.686-.421a20.447,20.447,0,0,1-3.055-2.212A10,10,0,0,0,36.8,26.412" transform="translate(1.962 1.505)"/>
        <path id="Path_76" data-name="Path 76" class="cls-2" d="M32.6,27.227a6.987,6.987,0,0,1-2,.948c2.107.843,3.793,2.318,3.793,4.635a7.913,7.913,0,0,1-.527,2.739,11.469,11.469,0,0,0,3.793,2.318,20.608,20.608,0,0,0,9.481,1.37,2.432,2.432,0,0,1-.737-.527,10.586,10.586,0,0,1-1.686-2.528C42.61,32.494,38.185,24.593,32.6,27.227" transform="translate(1.63 1.533)"/>
        <path id="Path_77" data-name="Path 77" class="cls-2" d="M21.323,11.276c-3.793,6.742-3.793,16.013,4.951,17.7a7.457,7.457,0,0,1,3.055,0c9.376-1.791,8.639-12.537,3.9-18.857q-3-3.951-5.689-8.217c-2,3.16-4.425,6.11-6.216,9.376" transform="translate(1.005 0.207)"/>
        <path id="Path_78" data-name="Path 78" class="cls-2" d="M25.3,28.423h0c-.105,0-.105,0-.211.105-3.055.737-4.951,3.793-2.95,6.637,1.37,2,4.109,3.16,5.267,5.267,2.423-.948,5.267-2.739,5.9-5.267.948-4.319-3.477-8.639-8.007-6.742" transform="translate(1.134 1.601)"/>
        <rect id="Rectangle_3" data-name="Rectangle 3" class="cls-2" width="234.507" height="2.002" transform="translate(71.526 24.652)"/>
        <path id="Path_79" data-name="Path 79" class="cls-1" d="M69.1,33.235l4.425,8.849h2.107V28.6h-2v9.06L69.207,28.6H67.1V42.085h2Z" transform="translate(3.583 1.635)"/>
        <path id="Path_80" data-name="Path 80" class="cls-1" d="M85.717,39.767h-6.11V36.08h5.478V33.867H79.607v-2.95h5.9V28.6H77.5V42.085h8.217Z" transform="translate(4.139 1.635)"/>
        <path id="Path_81" data-name="Path 81" class="cls-1" d="M94.058,36.19a5.106,5.106,0,0,0,.948-1.37,5.919,5.919,0,0,0,.316-2.107,5.132,5.132,0,0,0-.632-2.634,3.274,3.274,0,0,0-1.58-1.37,12.011,12.011,0,0,0-2.634-.211H87V41.985h2.212V36.928h1.475a11.179,11.179,0,0,0,2.212-.211,1.921,1.921,0,0,0,1.159-.527m-1.9-1.686a5.411,5.411,0,0,1-1.686.211H89.318V30.923h1.054a6.065,6.065,0,0,1,1.58.105,1.638,1.638,0,0,1,.843.632,2.247,2.247,0,0,1,.316,1.264,3.116,3.116,0,0,1-.211,1.053A3.2,3.2,0,0,1,92.162,34.5Z" transform="translate(4.647 1.63)"/>
        <path id="Path_82" data-name="Path 82" class="cls-1" d="M101.032,28.6H98.714L94.5,42.085h2.318l.948-3.055h4.319l.948,3.055h2.318ZM98.4,36.712l1.475-5.057,1.475,5.057Z" transform="translate(5.048 1.635)"/>
        <path id="Path_83" data-name="Path 83" class="cls-1" d="M113.585,39.762h-5.478V28.7H106V42.079h7.585Z" transform="translate(5.663 1.64)"/>
        <rect id="Rectangle_4" data-name="Rectangle 4" class="cls-1" width="2.212" height="13.485" transform="translate(124.727 30.235)"/>
        <path id="Path_84" data-name="Path 84" class="cls-1" d="M129.037,37.66l-4.53-9.06H122.4V42.085h2.107V33.235l4.319,8.849h2.212V28.6h-2Z" transform="translate(6.541 1.635)"/>
        <path id="Path_85" data-name="Path 85" class="cls-1" d="M136.862,38.608,134.123,28.6H131.7l3.9,13.485h2.318l3.9-13.485H139.5Z" transform="translate(7.038 1.635)"/>
        <path id="Path_86" data-name="Path 86" class="cls-1" d="M144.612,36.08h5.373V33.867h-5.373v-2.95h5.794V28.6H142.4V42.085h8.217V39.767h-6Z" transform="translate(7.61 1.635)"/>
        <path id="Path_87" data-name="Path 87" class="cls-1" d="M158.237,41.785a3.328,3.328,0,0,0,1.475-1.475,4.794,4.794,0,0,0,.527-2.107,4.178,4.178,0,0,0-.421-2.107,4.989,4.989,0,0,0-1.159-1.37,10.3,10.3,0,0,0-2.318-.948,4.982,4.982,0,0,1-2-.948,1.282,1.282,0,0,1,0-1.686,2.084,2.084,0,0,1,1.475-.527,1.787,1.787,0,0,1,1.369.421,2.734,2.734,0,0,1,.632,1.475l2.212-.105a4.36,4.36,0,0,0-1.053-2.95,3.888,3.888,0,0,0-3.055-1.159,4.178,4.178,0,0,0-2.107.421,2.882,2.882,0,0,0-1.37,1.37,4.449,4.449,0,0,0,.527,4.635,5.627,5.627,0,0,0,2.423,1.37,10.179,10.179,0,0,1,1.791.632c.421.211.632.316.738.632a1.985,1.985,0,0,1,.211.843,1.744,1.744,0,0,1-.527,1.264,1.813,1.813,0,0,1-1.58.527,2.144,2.144,0,0,1-1.58-.632,3.205,3.205,0,0,1-.737-2l-2.107.211a5.223,5.223,0,0,0,1.37,3.477,3.918,3.918,0,0,0,3.161,1.159,2.966,2.966,0,0,0,2.107-.421" transform="translate(8.103 1.619)"/>
        <path id="Path_88" data-name="Path 88" class="cls-1" d="M163.96,42.085h2.212V30.918h3.161V28.6H160.8v2.318h3.16Z" transform="translate(8.595 1.635)"/>
        <path id="Path_89" data-name="Path 89" class="cls-1" d="M175.567,37.765l-2-9.165H170.3V42.085h2V31.444l2.212,10.64h2.107l2.107-10.64v10.64h2V28.6h-3.266Z" transform="translate(9.103 1.635)"/>
        <path id="Path_90" data-name="Path 90" class="cls-1" d="M190.517,39.767h-6V36.08h5.373V33.867h-5.373v-2.95h5.794V28.6H182.3V42.085h8.217Z" transform="translate(9.745 1.635)"/>
        <path id="Path_91" data-name="Path 91" class="cls-1" d="M200.433,42.085V28.6h-2v9.06l-4.425-9.06H191.9V42.085h2V33.235l4.425,8.849Z" transform="translate(10.258 1.635)"/>
        <path id="Path_92" data-name="Path 92" class="cls-1" d="M210.138,28.6H201.5v2.318h3.16V42.085h2.212V30.918h3.266Z" transform="translate(10.772 1.635)"/>
        <path id="Path_93" data-name="Path 93" class="cls-1" d="M222.058,34.916a2.8,2.8,0,0,0,1.053-1.159,3.091,3.091,0,0,0,.421-1.686,3.849,3.849,0,0,0-.316-1.58,3.3,3.3,0,0,0-.843-1.159,2.339,2.339,0,0,0-1.159-.527,9.125,9.125,0,0,0-1.9-.105H215V42.185h3.687a14.347,14.347,0,0,0,2.634-.105,3.694,3.694,0,0,0,1.475-.632,3.209,3.209,0,0,0,.948-1.37,4.922,4.922,0,0,0,.316-1.791,4.034,4.034,0,0,0-.527-2,2.354,2.354,0,0,0-1.475-1.37m-4.846-4.109h1.264a7.086,7.086,0,0,1,1.9.105,1.094,1.094,0,0,1,.843.421,1.572,1.572,0,0,1,.316,1.053,1.779,1.779,0,0,1-.316,1.053,2.293,2.293,0,0,1-.843.527h-3.055v-3.16Zm4.319,8.323a1.448,1.448,0,0,1-.843.527,4.789,4.789,0,0,1-1.475.105h-2V36.18H219a6.035,6.035,0,0,1,1.9.211.95.95,0,0,1,.632.632,1.733,1.733,0,0,1,.211,1.053A1.151,1.151,0,0,1,221.532,39.13Z" transform="translate(11.494 1.64)"/>
        <path id="Path_94" data-name="Path 94" class="cls-1" d="M228.514,28.6,224.3,42.085h2.318l.948-3.055h4.319l.948,3.055h2.318L230.831,28.6h-2.317Zm-.316,8.112,1.475-5.057,1.475,5.057Z" transform="translate(11.991 1.635)"/>
        <path id="Path_95" data-name="Path 95" class="cls-1" d="M237.8,33.235l4.425,8.849h2.107V28.6h-2v9.06l-4.425-9.06H235.8V42.085h2Z" transform="translate(12.606 1.635)"/>
        <path id="Path_96" data-name="Path 96" class="cls-1" d="M255.892,42.085l-4.214-8.217,4.109-5.267h-2.95l-4.53,6v-6H246.2V42.085h2.107V37.976l1.791-2.212,3.055,6.321Z" transform="translate(13.163 1.635)"/>
        <path id="Path_97" data-name="Path 97" class="cls-1" d="M268.185,39.762h-5.478V28.7H260.6V42.079h7.585Z" transform="translate(13.933 1.64)"/>
        <path id="Path_98" data-name="Path 98" class="cls-1" d="M267.5,30.918h3.16V42.085h2.213V30.918h3.16V28.6H267.5Z" transform="translate(14.302 1.635)"/>
        <path id="Path_99" data-name="Path 99" class="cls-1" d="M283.11,41.769a4.166,4.166,0,0,0,1.58-1.053,6.492,6.492,0,0,0,1.159-2.423,11.755,11.755,0,0,0,.316-2.844,13.3,13.3,0,0,0-.316-3.16,7.174,7.174,0,0,0-1.053-2.212,3.046,3.046,0,0,0-1.58-1.264,5.872,5.872,0,0,0-2.107-.211H277V42.085h4.108a5.311,5.311,0,0,0,2-.316m-3.9-2V30.812h.948a7.537,7.537,0,0,1,1.791.105,2.186,2.186,0,0,1,1.054.632,2.4,2.4,0,0,1,.632,1.264,14.036,14.036,0,0,1,0,4.846,2.375,2.375,0,0,1-.527,1.264,1.448,1.448,0,0,1-.843.527,4.754,4.754,0,0,1-1.37.105h-1.686Z" transform="translate(14.81 1.635)"/>
        <rect id="Rectangle_5" data-name="Rectangle 5" class="cls-1" width="2.107" height="2.634" transform="translate(302.766 41.086)"/>
        <path id="Path_100" data-name="Path 100" class="cls-1" d="M78.024,48a.387.387,0,0,0-.316.105c-.105.105-.105.211-.105.421v.421a.548.548,0,0,1-.211.421,1.228,1.228,0,0,1-.737.211,12.434,12.434,0,0,1-1.686-.105c-1.053-.105-1.9-.211-2.318-.211a6.505,6.505,0,0,0-2.634.527,3.832,3.832,0,0,0-1.686,1.475,3.4,3.4,0,0,0-.632,1.9,2.246,2.246,0,0,0,.316,1.264.579.579,0,0,0,.527.316.8.8,0,0,0,.421-.211.387.387,0,0,0,.105-.316c0-.211-.105-.316-.316-.527a.963.963,0,0,1-.316-.527.634.634,0,0,1-.105-.421,2.317,2.317,0,0,1,.421-1.37,2.675,2.675,0,0,1,1.37-.948,7.5,7.5,0,0,1,2.423-.316h.737l-.105.211-1.053,4.319c-.421,1.791-.737,2.844-.843,3.16a1.619,1.619,0,0,1-.421.632,1.694,1.694,0,0,1-1.159.316l-.105.421a9.641,9.641,0,0,1,1.686-.105,3.952,3.952,0,0,1,1.053.105c.527,0,.948.105,1.159.105a3.628,3.628,0,0,0,.948-.105l.105-.421a4.321,4.321,0,0,1-1.159.105,3.629,3.629,0,0,1-.948-.105l.421-2,.421-1.686.737-2.844c.316-1.159.421-1.791.527-2h1.159a3.891,3.891,0,0,0,2.212-.421,1.282,1.282,0,0,0,.632-1.053.58.58,0,0,0-.211-.527c0-.105-.211-.211-.316-.211" transform="translate(3.615 2.673)"/>
        <path id="Path_101" data-name="Path 101" class="cls-1" d="M86.567,51.6a1.259,1.259,0,0,0-.843.421,9.582,9.582,0,0,0-1.9,2.212l.316-1.475a1.844,1.844,0,0,0,.105-.527c0-.105,0-.105-.105-.211h-.105a2.22,2.22,0,0,0-1.159.421,8.308,8.308,0,0,0-1.58,1.264l.211.316a5.328,5.328,0,0,1,.948-.843c.211-.105.316-.211.421-.211a.227.227,0,0,1,.211.211,1.05,1.05,0,0,1-.105.421c-.211.948-.421,2-.737,3.055l-.527,2.212h1.264l.316-1.58a15.458,15.458,0,0,1,.527-2,3.944,3.944,0,0,1,.632-1.053,3.1,3.1,0,0,1,.843-.843,3.789,3.789,0,0,1,.948-.527c.421-.105.737-.211.843-.421a.547.547,0,0,0,.211-.421.421.421,0,0,0-.211-.421c-.211.105-.316,0-.527,0" transform="translate(4.342 2.865)"/>
        <path id="Path_102" data-name="Path 102" class="cls-1" d="M97.494,58.1a.387.387,0,0,1-.316.105c-.105,0-.105,0-.211-.105s-.105-.105-.105-.211a26.17,26.17,0,0,1,.632-2.844l.737-2.844H97.073l-.843,3.371a4.124,4.124,0,0,1-1.053,1.686A2.012,2.012,0,0,1,93.912,58c-.105,0-.211,0-.211-.105a.387.387,0,0,1-.105-.316c0-.211.211-.948.527-2.212a15.721,15.721,0,0,0,.632-2.739c0-.211,0-.316-.105-.421a.387.387,0,0,0-.316-.105,2.426,2.426,0,0,0-.948.316A9.735,9.735,0,0,0,91.7,53.68l.316.316c.421-.421.737-.632.843-.737.105-.211.211-.211.316-.211s.105.105.105.211a17.326,17.326,0,0,1-.527,2.318c-.316,1.053-.421,1.686-.527,2.107,0,.211-.105.421-.105.632a.891.891,0,0,0,.211.632.547.547,0,0,0,.421.211,2.512,2.512,0,0,0,1.264-.421,6.39,6.39,0,0,0,1.791-1.475,5.438,5.438,0,0,0-.211,1.159.731.731,0,0,0,.632.737c.527,0,1.37-.527,2.423-1.686l-.316-.316a4.087,4.087,0,0,1-.843.948" transform="translate(4.899 2.892)"/>
        <path id="Path_103" data-name="Path 103" class="cls-1" d="M110.289,47.6a4.357,4.357,0,0,0-2,.527,4.278,4.278,0,0,0-1.475,1.58,12.685,12.685,0,0,0-.843,2.634l-.843,3.582a18.368,18.368,0,0,0-.527,2.739.79.79,0,0,0,.105.527.547.547,0,0,0,.422.211,2.8,2.8,0,0,0,1.475-.632,9.168,9.168,0,0,0,1.475-1.264l-.316-.316a5.972,5.972,0,0,1-1.37,1.054,1.78,1.78,0,0,1-.527.211.227.227,0,0,1-.211-.211c0-.105.211-.948.632-2.739l.843-3.477c.316-1.264.527-2,.632-2.528a2.017,2.017,0,0,1,.421-.843.79.79,0,0,1,.527-.105,2.057,2.057,0,0,1,.737.105,2.057,2.057,0,0,0,.737.105.8.8,0,0,0,.527-.211.547.547,0,0,0,.211-.421.8.8,0,0,0-.211-.421,1.09,1.09,0,0,0-.421-.105" transform="translate(5.589 2.651)"/>
        <path id="Path_104" data-name="Path 104" class="cls-1" d="M119.585,52c-.105,0-.316.105-.421.105-.105.105-.105.211-.105.421a2.965,2.965,0,0,0,.105.843,2.617,2.617,0,0,1,.105.843,8.532,8.532,0,0,1-1.37,4v-.527a9.677,9.677,0,0,0-.527-2.95,7.417,7.417,0,0,0-1.159-2.423c-.105-.105-.211-.211-.316-.211a.8.8,0,0,0-.421.105,10.937,10.937,0,0,0-1.264.737l-.632.421.211.421a2.637,2.637,0,0,1,1.159-.527.762.762,0,0,1,.632.421,5.806,5.806,0,0,1,.948,2.423,14.553,14.553,0,0,1,.316,2.739,2.973,2.973,0,0,1-.421,1.58,7.254,7.254,0,0,1-1.159,1.37,1.509,1.509,0,0,1-1.053.421,2.78,2.78,0,0,1-.738-.105,2.057,2.057,0,0,0-.737-.105c-.211,0-.421,0-.527.211a.548.548,0,0,0-.211.421c0,.211.105.316.316.421a1.632,1.632,0,0,0,.843.211,2.633,2.633,0,0,0,1.475-.421,5.376,5.376,0,0,0,1.686-1.264,25.269,25.269,0,0,0,1.9-2.634,14.945,14.945,0,0,0,1.475-3.371,9.642,9.642,0,0,0,.527-2.634.89.89,0,0,0-.211-.632c0-.316-.211-.316-.421-.316" transform="translate(5.984 2.887)"/>
        <path id="Path_105" data-name="Path 105" class="cls-1" d="M140.173,57.91c-.211.105-.316.211-.421.211a.227.227,0,0,1-.211-.211c0-.211.105-.527.211-1.159a18.58,18.58,0,0,1,.737-2.844l.632-2.107-.527.105-.211.316h-.527a3.694,3.694,0,0,0-1.686.316,8.8,8.8,0,0,0-1.686,1.264,7.453,7.453,0,0,0-1.264,1.9,4.783,4.783,0,0,0-.421,1.9,1.893,1.893,0,0,0,.316,1.159.956.956,0,0,0,.737.316,1.509,1.509,0,0,0,1.054-.421,7.374,7.374,0,0,0,1.685-1.475l-.316,1.159c0,.105-.105.211-.105.316a.373.373,0,0,0,.421.421,1.336,1.336,0,0,0,.632-.105,4.269,4.269,0,0,0,.948-.527,6.933,6.933,0,0,0,1.159-1.053l-.211-.316a2.488,2.488,0,0,1-.948.843M138.8,55.7a4.144,4.144,0,0,1-.948,1.791,1.83,1.83,0,0,1-1.159.632c-.211,0-.316-.105-.527-.211a1.631,1.631,0,0,1-.211-.843,5.022,5.022,0,0,1,.421-2.107,3.33,3.33,0,0,1,1.053-1.475,2.024,2.024,0,0,1,1.264-.421,2.057,2.057,0,0,1,.737.105Z" transform="translate(7.204 2.876)"/>
        <path id="Path_106" data-name="Path 106" class="cls-1" d="M168.979,48.9a2.124,2.124,0,0,0-1.159.316,3.16,3.16,0,0,0-.948,1.053,7.476,7.476,0,0,0-.843,2.212q-.158.474-.632,2.528a15.459,15.459,0,0,1-.527,2c-.843-2.318-1.37-3.9-1.58-4.53a22.9,22.9,0,0,1-.632-2.318l-.211-.948a3.787,3.787,0,0,1-1.159.211,10.961,10.961,0,0,0-2.318.527,3.167,3.167,0,0,0-1.475,1.159,2.875,2.875,0,0,0-.527,1.9,2.1,2.1,0,0,0,.211.948.579.579,0,0,0,.527.316.372.372,0,0,0,.421-.421c0-.105-.105-.211-.211-.421s-.211-.316-.211-.421c0-.211-.105-.316-.105-.527a1.7,1.7,0,0,1,.316-.948,2.84,2.84,0,0,1,.843-.737,9.425,9.425,0,0,1,1.37-.527c.527-.105.948-.211,1.053-.211a41.929,41.929,0,0,1-1.475,6.216,6.683,6.683,0,0,1-1.264,2.634,1.287,1.287,0,0,1-.948.421,1.115,1.115,0,0,1-.948-.527.963.963,0,0,0-.527-.316.372.372,0,0,0-.421.421.578.578,0,0,0,.421.632,2.247,2.247,0,0,0,1.264.316,4.48,4.48,0,0,0,1.159-.211,3.413,3.413,0,0,0,.948-.843,8.288,8.288,0,0,0,.843-1.686c.105-.211.316-1.159.737-2.634.421-1.58.632-2.634.737-3.266l.843,2.844c.421,1.159.737,2.107,1.053,2.95.211.527.632,1.58,1.264,2.95l.316-1.264c.632-2.739,1.159-4.846,1.58-6.11a5.63,5.63,0,0,1,1.159-2.423.889.889,0,0,1,.737-.211h.316a4.419,4.419,0,0,0,.527.211c.105,0,.211.105.316.105a.372.372,0,0,0,.421-.421c0-.211-.105-.316-.316-.527a1.287,1.287,0,0,0-.948-.421" transform="translate(8.317 2.721)"/>
        <path id="Path_107" data-name="Path 107" class="cls-1" d="M176.9,52a3.192,3.192,0,0,0-2.844,2A6.353,6.353,0,0,0,173,57.478a2.247,2.247,0,0,0,.316,1.264.958.958,0,0,0,.843.421q1.422,0,3.477-1.9l-.316-.316c-.737.527-1.264.843-1.58,1.054a2.68,2.68,0,0,1-.737.211.8.8,0,0,1-.527-.211,1.632,1.632,0,0,1-.211-.843,2.32,2.32,0,0,1,.105-.843,12.222,12.222,0,0,0,2-.948,4.665,4.665,0,0,0,1.264-1.053,1.872,1.872,0,0,0,.422-1.053,1.2,1.2,0,0,0-.316-.843A.958.958,0,0,0,176.9,52m-.527,2.318a6.565,6.565,0,0,1-2,1.264,8.9,8.9,0,0,1,.527-1.791,3.675,3.675,0,0,1,.632-.948,1.5,1.5,0,0,1,.632-.211c.211,0,.316.105.527.211a.8.8,0,0,1,.211.527A1.106,1.106,0,0,1,176.371,54.318Z" transform="translate(9.247 2.887)"/>
        <path id="Path_108" data-name="Path 108" class="cls-1" d="M189.769,52a2.481,2.481,0,0,0-1.37.527,16.443,16.443,0,0,0-1.685,1.58,6.527,6.527,0,0,0,.316-1.159c0-.211.105-.316.105-.527a.372.372,0,0,0-.421-.421,2.512,2.512,0,0,0-1.264.421,7.867,7.867,0,0,0-1.475,1.264l.316.316c.632-.737,1.159-1.053,1.37-1.053a.227.227,0,0,1,.211.211,12.945,12.945,0,0,1-.421,1.9l-1.475,6.216a2.7,2.7,0,0,1-.422.948,1.287,1.287,0,0,1-.948.316l-.105.421a14.917,14.917,0,0,1,2-.105,17.237,17.237,0,0,1,2.107.105l.105-.421a6.441,6.441,0,0,1-1.475-.316.547.547,0,0,1-.211-.421.8.8,0,0,1,.105-.421l.737-2.739a2.4,2.4,0,0,0,1.159.316,3.618,3.618,0,0,0,2.739-1.791,6.312,6.312,0,0,0,1.264-3.793,1.694,1.694,0,0,0-.316-1.159,3.909,3.909,0,0,0-.948-.211m-.843,5.057c-.527,1.053-1.054,1.475-1.686,1.475a2.04,2.04,0,0,1-1.369-.632l.421-1.791a5.587,5.587,0,0,1,.527-1.475,4.044,4.044,0,0,1,1.159-1.159,2.075,2.075,0,0,1,.843-.421.8.8,0,0,1,.527.211,1.522,1.522,0,0,1,.211.737A6.638,6.638,0,0,1,188.926,57.057Z" transform="translate(9.755 2.887)"/>
        <path id="Path_109" data-name="Path 109" class="cls-1" d="M201.873,57.91c-.211.105-.316.211-.421.211a.227.227,0,0,1-.211-.211c0-.211.105-.527.211-1.159a18.582,18.582,0,0,1,.737-2.844l.632-2.107-.527.105-.211.316h-.527a3.693,3.693,0,0,0-1.685.316,8.79,8.79,0,0,0-1.686,1.264,7.456,7.456,0,0,0-1.264,1.9,4.784,4.784,0,0,0-.421,1.9,1.892,1.892,0,0,0,.316,1.159.956.956,0,0,0,.737.316,1.51,1.51,0,0,0,1.054-.421,7.376,7.376,0,0,0,1.685-1.475l-.316,1.159c0,.105-.105.211-.105.316a.372.372,0,0,0,.421.421,1.336,1.336,0,0,0,.632-.105,4.268,4.268,0,0,0,.948-.527,6.937,6.937,0,0,0,1.159-1.053l-.316-.316a3.206,3.206,0,0,1-.843.843M200.5,55.7a4.143,4.143,0,0,1-.948,1.791,1.821,1.821,0,0,1-1.264.632c-.211,0-.316-.105-.527-.211a1.632,1.632,0,0,1-.211-.843,5.183,5.183,0,0,1,.527-2.107,3.331,3.331,0,0,1,1.054-1.475,2.024,2.024,0,0,1,1.264-.421,2.057,2.057,0,0,1,.737.105Z" transform="translate(10.504 2.876)"/>
        <path id="Path_110" data-name="Path 110" class="cls-1" d="M214.589,47.6a4.357,4.357,0,0,0-2,.527,4.278,4.278,0,0,0-1.475,1.58,12.683,12.683,0,0,0-.843,2.634l-.843,3.582a18.371,18.371,0,0,0-.527,2.739.8.8,0,0,0,.211.527.547.547,0,0,0,.421.211,2.8,2.8,0,0,0,1.475-.632,9.172,9.172,0,0,0,1.475-1.264l-.316-.316A5.972,5.972,0,0,1,210.8,58.24a1.781,1.781,0,0,1-.527.211.227.227,0,0,1-.211-.211c0-.105.211-.948.632-2.739l.843-3.477c.316-1.264.527-2,.632-2.528a2.018,2.018,0,0,1,.422-.843.789.789,0,0,1,.527-.105,2.057,2.057,0,0,1,.738.105,2.057,2.057,0,0,0,.737.105.8.8,0,0,0,.527-.211.547.547,0,0,0,.211-.421.8.8,0,0,0-.211-.421,4.561,4.561,0,0,0-.527-.105" transform="translate(11.168 2.651)"/>
        <path id="Path_111" data-name="Path 111" class="cls-1" d="M220.1,58.116A.1.1,0,0,1,220,58.01a.368.368,0,0,1-.105-.211,23.2,23.2,0,0,1,.843-3.477c.316-1.159.527-1.9.527-2a.387.387,0,0,0-.105-.316c-.105-.105-.211-.105-.421-.105a1.961,1.961,0,0,0-1.159.421,4.957,4.957,0,0,0-1.475,1.264l.316.316a11.09,11.09,0,0,0,.948-.843.633.633,0,0,1,.421-.105c.105,0,.105.105.105.211a.387.387,0,0,1-.105.316,24.457,24.457,0,0,0-1.264,4.951.731.731,0,0,0,.632.737,1.681,1.681,0,0,0,.843-.316,19.2,19.2,0,0,0,1.686-1.37l-.316-.316q-.948.948-1.264.948" transform="translate(11.66 2.881)"/>
        <path id="Path_112" data-name="Path 112" class="cls-1" d="M221.537,48.7a.8.8,0,0,0-.527.211.774.774,0,0,0-.211.632c0,.211,0,.316.211.421a.547.547,0,0,0,.421.211.579.579,0,0,0,.527-.316.774.774,0,0,0,.211-.632.548.548,0,0,0-.211-.421c-.105-.105-.211-.105-.421-.105" transform="translate(11.804 2.71)"/>
        <path id="Path_113" data-name="Path 113" class="cls-1" d="M245.355,52.571a2.518,2.518,0,0,0,.527-1.475,1.535,1.535,0,0,0-.737-1.37,3.458,3.458,0,0,0-2.212-.527,7.491,7.491,0,0,0-3.371.737,5.6,5.6,0,0,0-2.318,2.107,5.166,5.166,0,0,0-.843,2.634,2.914,2.914,0,0,0,.527,1.686,1.274,1.274,0,0,0,.948.632.449.449,0,0,0,.316-.737l-.422-.421c-.211-.105-.316-.316-.421-.316a.8.8,0,0,1-.211-.527.949.949,0,0,1-.105-.527,4.258,4.258,0,0,1,.737-2.318,5.053,5.053,0,0,1,2.107-1.791,6.329,6.329,0,0,1,2.844-.737,2.186,2.186,0,0,1,1.58.421,1.509,1.509,0,0,1,.527,1.159,2.1,2.1,0,0,1-.737,1.686,2.968,2.968,0,0,1-2.212.737l.421-1.791c.105-.316.211-.843.421-1.37a7.156,7.156,0,0,1-2,.316l-.105.421h.211c.105,0,.211,0,.211.105.105.105.105.105.105.211a.634.634,0,0,1-.105.421l-1.159,4.741c-.21.843-.421,1.37-.737,1.58a1.781,1.781,0,0,1-1.264.421l-.105.421A6.477,6.477,0,0,1,239.244,59H240.3c.737,0,1.159.105,1.369.105a4.8,4.8,0,0,0,2.107-.527,3.5,3.5,0,0,0,1.475-1.264,3.183,3.183,0,0,0,.527-1.686,2.516,2.516,0,0,0-.211-.948,1.417,1.417,0,0,0-.632-.737,2.968,2.968,0,0,0-1.159-.421,2.894,2.894,0,0,0,1.58-.948m-1.264,2.318a1.471,1.471,0,0,1,.316.948,2.956,2.956,0,0,1-.737,2,2.531,2.531,0,0,1-2.212.843,7.775,7.775,0,0,1-1.264-.211,1.7,1.7,0,0,0,.421-.737,11.36,11.36,0,0,0,.632-2l.421-1.686a6.551,6.551,0,0,1,1.686.105A2.461,2.461,0,0,1,244.091,54.889Z" transform="translate(12.639 2.737)"/>
        <path id="Path_114" data-name="Path 114" class="cls-1" d="M257.067,57.91c-.21.105-.316.211-.421.211a.227.227,0,0,1-.211-.211c0-.211.105-.527.211-1.159a18.572,18.572,0,0,1,.737-2.844l.632-2.107-.527.105-.211.316h-.527a3.7,3.7,0,0,0-1.686.316,5.969,5.969,0,0,0-1.58,1.264,7.447,7.447,0,0,0-1.264,1.9,4.781,4.781,0,0,0-.421,1.9,1.892,1.892,0,0,0,.316,1.159.956.956,0,0,0,.737.316,1.51,1.51,0,0,0,1.054-.421,5.679,5.679,0,0,0,1.685-1.475l-.316,1.159c0,.105-.105.211-.105.316a.372.372,0,0,0,.421.421,1.335,1.335,0,0,0,.632-.105,9.731,9.731,0,0,0,1.054-.527,6.933,6.933,0,0,0,1.159-1.053l-.211-.316c-.527.316-.843.632-1.159.843M255.7,55.7a4.141,4.141,0,0,1-.948,1.791,1.83,1.83,0,0,1-1.159.632c-.211,0-.316-.105-.527-.211a1.632,1.632,0,0,1-.211-.843,5.023,5.023,0,0,1,.421-2.107,3.333,3.333,0,0,1,1.054-1.475,1.679,1.679,0,0,1,1.264-.421,2.057,2.057,0,0,1,.737.105Z" transform="translate(13.462 2.876)"/>
        <path id="Path_115" data-name="Path 115" class="cls-1" d="M270.321,57.8a1.326,1.326,0,0,1-.737.421c-.105,0-.105,0-.105-.105V57.9A11.792,11.792,0,0,1,270,55.693a21.33,21.33,0,0,0,.632-2.318,4.564,4.564,0,0,1,.105-.527,1.5,1.5,0,0,0-.211-.632.805.805,0,0,0-.527-.211,1.7,1.7,0,0,0-1.054.421,12.286,12.286,0,0,0-2.107,1.686l.316-1.686v-.211c0-.105,0-.105-.105-.211-.105,0-.105-.105-.316-.105a2.355,2.355,0,0,0-1.053.316A7.247,7.247,0,0,0,264,53.586l.316.316a6.826,6.826,0,0,1,.948-.843c.211-.105.316-.211.421-.211a.227.227,0,0,1,.211.211v.316l-.738,3.16c-.21.737-.421,1.475-.632,2.318h1.264l.632-2.844a2.831,2.831,0,0,1,.527-1.37,4.487,4.487,0,0,1,1.264-1.159,1.68,1.68,0,0,1,.843-.316.279.279,0,0,1,.316.316,6.525,6.525,0,0,1-.316,1.159,17.63,17.63,0,0,0-.948,3.582,1.522,1.522,0,0,0,.211.737.8.8,0,0,0,.527.211,1.682,1.682,0,0,0,.843-.316,6.122,6.122,0,0,0,1.58-1.37l-.211-.316a4.575,4.575,0,0,0-.737.632" transform="translate(14.115 2.881)"/>
        <path id="Path_116" data-name="Path 116" class="cls-1" d="M285.949,60.147c-.105,0-.211.105-.316.105a.527.527,0,0,0,0,.632.387.387,0,0,1,.105.316q0,.158-.316.316a1.5,1.5,0,0,1-.632.211,2.189,2.189,0,0,1-1.264-.527,5.023,5.023,0,0,1-1.264-2.212c-.421-.948-.737-1.58-.948-2a3.7,3.7,0,0,0-.737-.948,4.606,4.606,0,0,0-1.053-.632,4.485,4.485,0,0,0,2.739-.737,1.857,1.857,0,0,0,.948-1.58.82.82,0,0,0-.316-.737.956.956,0,0,0-.737-.316,2.024,2.024,0,0,0-1.264.421,6.112,6.112,0,0,0-1.58,1.37l.632-2.634a17.967,17.967,0,0,1,.527-1.9.967.967,0,0,1,.421-.632.8.8,0,0,1,.527-.211h.421a4.839,4.839,0,0,0,1.054.105.95.95,0,0,0,.527-.105.527.527,0,0,0,0-.843.891.891,0,0,0-.632-.211,4.638,4.638,0,0,0-1.053.211,3.164,3.164,0,0,0-1.159.632,3.205,3.205,0,0,0-.843.843,3.518,3.518,0,0,0-.527,1.264c-.105.527-.527,1.9-1.053,4.109L277.1,58.883h1.264l.843-3.477a4.863,4.863,0,0,1,.737.737c.211.316.421.843.737,1.475a21.212,21.212,0,0,0,1.264,2.634,6.1,6.1,0,0,0,1.264,1.475,2.745,2.745,0,0,0,1.581.421,1.787,1.787,0,0,0,1.369-.421,1.463,1.463,0,0,0,.527-1.053c0-.211-.105-.316-.211-.527h-.527M279.1,55.3l.105-.632c1.054-1.159,1.791-1.686,2.318-1.686a.731.731,0,0,1,.632.737,1.4,1.4,0,0,1-.316.843,2.037,2.037,0,0,1-.948.527A7.565,7.565,0,0,1,279.1,55.3Z" transform="translate(14.815 2.641)"/>
        <path id="Path_117" data-name="Path 117" class="cls-1" d="M289.323,16.216a1.3,1.3,0,0,1,.421.843.958.958,0,0,1-.421.843,1.914,1.914,0,0,1-2.107,0,1.282,1.282,0,0,1,0-1.686,1.914,1.914,0,0,1,2.107,0" transform="translate(15.34 0.956)"/>
        <path id="Path_118" data-name="Path 118" class="cls-1" d="M142.2,9.4h-1.264a3.952,3.952,0,0,0-1.053.105c-.211,0-.421.105-.737.105a5.591,5.591,0,0,0-2,.632c-.632.211-.948.527-.948.843V17.2c0,.105.105.211.105.316a1.634,1.634,0,0,0,1.264.737,14.427,14.427,0,0,0,1.686.211,5.2,5.2,0,0,0,2.528-.421,2.156,2.156,0,0,0,.843-.843v-6.11a8.517,8.517,0,0,1,1.686-.105,5.13,5.13,0,0,1,1.264.105,5.943,5.943,0,0,1,1.264.421V9.821a11.517,11.517,0,0,0-1.791-.316c-.948,0-1.9-.105-2.844-.105m-2.528,7.374c0,.211-.211.211-.527.211-.211,0-.316-.105-.316-.211V12.139c0-.316.105-.421.316-.421a.387.387,0,0,1,.316.105c.105.105.105.105.105.211v4.741Z" transform="translate(7.279 0.608)"/>
        <path id="Path_119" data-name="Path 119" class="cls-1" d="M147.382,5.3H118.2V7.407h12.115V8.566c0-.105-.316-.105-.843-.105h-2a28.186,28.186,0,0,0-6.426.632c-.527.105-.737.737-.737,1.686l.105,2.212a4.837,4.837,0,0,1,1.053-.105h.632l2-.105,1.475-.105h.632a30.818,30.818,0,0,1,4.53.421v3.371a8.385,8.385,0,0,1-2.107.737,4.559,4.559,0,0,0-.527.105,1.145,1.145,0,0,0-.527.105l-.843.105V15.308a1.534,1.534,0,0,0-.948-.632,5.642,5.642,0,0,0-2.528-.527,8.979,8.979,0,0,0-2.423.316c-.421.211-.632.632-.632,1.37V17.1a4.636,4.636,0,0,0,.211,1.053c.211.421.316.632.421.632l.527.211c.211.105.316.105.527.211a.8.8,0,0,0,.421.105,2.917,2.917,0,0,0,.948.105,1.336,1.336,0,0,0,.632-.105v1.9h2.844V19.417a1.9,1.9,0,0,0,1.053.211,5.965,5.965,0,0,0,1.9-.316l3.055-1.264c.527-.211.737-.843.737-1.686V12.253c-.632-.737-2-1.159-4-1.159h-1.264l-.843.105h-.948c-1.264,0-2.423.105-3.582.211-.211-.105-.316-.211-.316-.421s.105-.316.316-.421A45.149,45.149,0,0,1,128,10.251c.527,0,1.053.105,1.475.105h1.58l2,.105V7.407h14.327Zm-23.6,11.8c0,.211-.105.211-.316.211a.619.619,0,0,1-.527-.211V15.835a.619.619,0,0,1,.527-.211c.105,0,.211.105.316.211Z" transform="translate(6.316 0.389)"/>
        <path id="Path_120" data-name="Path 120" class="cls-1" d="M172.105,5.6H159.674l-3.9-3.371-.948-.211c-.316-.105-.737-.211-1.159-.316a6.48,6.48,0,0,0-1.475-.105h-1.9l1.475,1.264a5.17,5.17,0,0,1,1.159.105l.421.105.421.105L156.513,5.5h-1.264v2h2.528v2.739a8.823,8.823,0,0,1-1.054-.211,4.723,4.723,0,0,0-1.159-.105,19.549,19.549,0,0,0-2.318-.105V7.6l.105-.105V7.394l-.105-.316a2.441,2.441,0,0,0-1.475-1.58,5.828,5.828,0,0,0-4.319-.211,2.2,2.2,0,0,0-1.053.843V7.6a2.389,2.389,0,0,1,2-.843,2.478,2.478,0,0,1,2,.737,2.024,2.024,0,0,1,.422,1.264v.421a4.741,4.741,0,0,1-.211.843,12.141,12.141,0,0,0-2.107.527c-.843.316-1.37.632-1.475,1.053v6.11c0,.105.105.211.105.316a1.634,1.634,0,0,0,1.264.737,14.43,14.43,0,0,0,1.685.211,5.2,5.2,0,0,0,2.528-.421,3.2,3.2,0,0,0,.843-.843V11.5a8.515,8.515,0,0,1,1.686-.105c.421,0,.843.105,1.264.105a9.786,9.786,0,0,1,1.369.421v8.217h2.844V7.5h1.686V7.6h.632v7.269a12.093,12.093,0,0,0,.211,1.475A3.149,3.149,0,0,0,164.2,18.14a5.637,5.637,0,0,0,1.37.632,11.668,11.668,0,0,0,2,.211,7.853,7.853,0,0,0,3.266-.632,4.294,4.294,0,0,0,2.107-2.212L167.68,7.816h14.96v1.37h-2.212a16.3,16.3,0,0,0-5.478.632,1.789,1.789,0,0,0-.632.632A2.224,2.224,0,0,0,173.9,11.5v6c0,.948.211,1.475.737,1.686a22.418,22.418,0,0,0,2.844.948,20.458,20.458,0,0,0,2.528.211h1.054a8.446,8.446,0,0,0,2.423-.316,6.792,6.792,0,0,0,1.475-.632l.527-.421V16.665a1.456,1.456,0,0,1-.948.737,8.124,8.124,0,0,1-2.107.737,10.211,10.211,0,0,1-2.423.316,7.46,7.46,0,0,1-2.739-.527,1.306,1.306,0,0,1-.316-.211.326.326,0,0,1-.105-.211V17.3l-.105-.527.105-5.583a25.515,25.515,0,0,1,4.741-.421c.527,0,1.264.105,2.423.105l1.475.105V7.6h1.264v-2H172.105ZM150.509,17.3c-.105.211-.211.211-.527.211-.211,0-.316-.105-.316-.211V12.662c0-.211.105-.421.316-.421a.487.487,0,0,1,.527.316Zm20.332-1.053q0,.158-.632.632a2.189,2.189,0,0,1-1.264.527h-1.053a4.784,4.784,0,0,1-1.9-.421c-.316-.105-.421-.527-.421-1.159V7.6Z" transform="translate(7.824 0.191)"/>
        <path id="Path_121" data-name="Path 121" class="cls-1" d="M213.676,5.609H199.454l-3.9-3.371-.843-.316c-.316-.105-.737-.211-1.159-.316A6.477,6.477,0,0,0,192.08,1.5h-1.9l1.475,1.264a5.168,5.168,0,0,1,1.159.105l.422.105.421.105L196.4,5.5H184.6v2h5.268V9.928a12.146,12.146,0,0,0-2.107.527c-.948.316-1.37.632-1.475,1.053v6.11c0,.105.105.211.105.316a1.634,1.634,0,0,0,1.264.737c.738.105,1.264.211,1.58.211a5.2,5.2,0,0,0,2.528-.421,3.206,3.206,0,0,0,.843-.843v-6.11c.316,0,.527-.105.737-.105h.948a5.13,5.13,0,0,1,1.264.105c.421.105.843.211,1.369.316v8.217h2.844V7.61h2V7.5h1.159V15.09a2.575,2.575,0,0,0,.737,2.107,5.319,5.319,0,0,0,3.687,1.053h.527a7,7,0,0,0,2.212-.316,5.589,5.589,0,0,0,1.791-.843,1.3,1.3,0,0,0,.527-.843,4.726,4.726,0,0,0,.105-1.159V7.5H223.9v1.37h-2.107a15.884,15.884,0,0,0-5.478.632,1.789,1.789,0,0,0-.632.632,2.224,2.224,0,0,0-.421,1.053v6c0,.948.211,1.475.737,1.686a12.822,12.822,0,0,0,2.844.948,20.457,20.457,0,0,0,2.528.211h1.053a8.445,8.445,0,0,0,2.423-.316,6.786,6.786,0,0,0,1.475-.632l.527-.421V16.354a1.456,1.456,0,0,1-.948.737,8.123,8.123,0,0,1-2.107.737,10.21,10.21,0,0,1-2.423.316,7.461,7.461,0,0,1-2.739-.527c-.105-.105-.316-.105-.316-.211a.326.326,0,0,1-.105-.211v-.211l-.105-.527.105-5.583a25.515,25.515,0,0,1,4.741-.421c.527,0,1.264.105,2.423.105l1.475.105V7.5h1.264v-2l-14.433.105ZM189.762,17.2c-.105.211-.211.211-.527.211-.211,0-.316-.105-.316-.211V12.562c0-.316.105-.421.316-.421.316,0,.527.105.527.316Zm7.058-6.953a7.782,7.782,0,0,0-1.264-.211,2.917,2.917,0,0,0-.948-.105,14.838,14.838,0,0,0-2.107-.105V7.716l4.319-.105Zm12.958,4.425v.316c0,.211,0,.316-.105.421-.211.737-.843,1.053-1.791,1.053a2.193,2.193,0,0,1-2-.948,1.985,1.985,0,0,1-.211-.843V7.5h4v7.164Z" transform="translate(9.868 0.186)"/>
        <path id="Path_122" data-name="Path 122" class="cls-1" d="M81.06,5.5,77.267,2.232l-.843-.211c-.316-.105-.737-.211-1.159-.316-.421,0-.948-.105-1.475-.105h-1.9l1.475,1.264a5.169,5.169,0,0,1,1.159.105l.316.105.421.105L77.9,5.5H66.1V7.6H78.32v2.634a11.512,11.512,0,0,0-1.791-.316,24.739,24.739,0,0,0-2.844-.105H72.421a3.952,3.952,0,0,0-1.053.105c-.211,0-.421.105-.843.105a4.637,4.637,0,0,1-1.053.211l-.948.316c-.632.211-.948.527-.948.737s-.105.527-.105.843v5.478c0,.105.105.211.105.316.105.421.527.632,1.264.737a3.629,3.629,0,0,0,.948.105h.737a4.5,4.5,0,0,0,2.423-.421,3.206,3.206,0,0,0,.843-.843v-6a8.515,8.515,0,0,1,1.686-.105c.421,0,.843.105,1.37.105a6.815,6.815,0,0,1,1.37.421v8.217H81.06V7.6h3.477v7.164a10.96,10.96,0,0,0,.211,1.58,3.348,3.348,0,0,0,.948,1.58,5.034,5.034,0,0,0,1.475.632,7.888,7.888,0,0,0,2.212.211,4.41,4.41,0,0,0,3.055-.843v2h2.844V7.6h2.107V19.931h2.844V7.6h12.853V9.29h-.105c-.105,0-.105-.105-.211-.105h-.527a6.874,6.874,0,0,0-1.791.211l-.632.316a2.2,2.2,0,0,0-.632.421l-.316-.316a1.454,1.454,0,0,0-.421-.316A5.931,5.931,0,0,0,107.4,9.29a5.672,5.672,0,0,0-1.159-.105H105.5a6.165,6.165,0,0,0-2.318.527,2.1,2.1,0,0,0-1.159,1.9v3.9l-.105,1.686a2.282,2.282,0,0,0,1.053,2,7.856,7.856,0,0,0,1.264.737,3.91,3.91,0,0,0,.948.211,1.146,1.146,0,0,1,.527.105h.948a16.286,16.286,0,0,0,3.266-.421v-1.58a7.765,7.765,0,0,1-2.844.632,5.11,5.11,0,0,1-2.212-.843v-5.9a1.274,1.274,0,0,1,.632-1.264,2.1,2.1,0,0,1,.948-.211,1.565,1.565,0,0,1,1.37.632v3.371h2.739V11.292l.737-.421a5.945,5.945,0,0,1,.737-.105,3.636,3.636,0,0,1,1.264.105v9.376h2.844V7.6H117.4V5.5H81.06Zm-9.8,11.694c0,.211-.211.211-.421.211s-.316-.105-.316-.211V12.556c0-.316.105-.421.316-.421a.387.387,0,0,1,.316.105c.105.105.105.105.105.211Zm21.491-.948a1.454,1.454,0,0,1-.316.421,5.133,5.133,0,0,1-.737.316,6.792,6.792,0,0,1-2.107.316,2.616,2.616,0,0,1-.948-.105.891.891,0,0,1-.632-.211c-.316-.211-.421-.632-.421-1.37V7.6h5.267Z" transform="translate(3.529 0.191)"/>
        <rect id="Rectangle_6" data-name="Rectangle 6" class="cls-1" width="75.008" height="2.107" transform="translate(162.968 5.689)"/>
        <path id="Path_123" data-name="Path 123" class="cls-1" d="M263.586,5.546H240.2l-.527-.527c.211-.105.316-.105.421-.316a1.2,1.2,0,0,0,.316-.843,1.2,1.2,0,0,0-.316-.843,1.914,1.914,0,0,0-2.107,0c-.105,0-.105.105-.105.211l-1.9-1.9-.737-.316a3.118,3.118,0,0,0-1.054-.211A6.975,6.975,0,0,0,232.614.7h-1.9l1.475,1.264h.527a.95.95,0,0,1,.527.105l.421.105.421.211,2.95,3.16-3.477-2.634a1.63,1.63,0,0,1-.632-.316,2.516,2.516,0,0,1-.737-.316,1.336,1.336,0,0,0-.632-.105c-.211,0-.527-.105-.738-.105H228.4l1.37,1.264a2.053,2.053,0,0,1,.843.105l.421.105.316.105,2.739,2h-4.635V7.758h9.271V9.444a4.083,4.083,0,0,0-2.423-.527,14.818,14.818,0,0,0-2.95.316,4.5,4.5,0,0,0-2,.843,2.1,2.1,0,0,0-.738,1.686v3.793a9.034,9.034,0,0,0,.316,1.37,2.709,2.709,0,0,0,.948,1.053,5.048,5.048,0,0,0,1.686.737,8.775,8.775,0,0,0,2.318.316,5.422,5.422,0,0,0,2.844-.632v1.9h2.844l-.105-9.692V7.864h9.9V9.549a4.082,4.082,0,0,0-2.423-.527,13.073,13.073,0,0,0-2.844.316,5.777,5.777,0,0,0-2.107.843,1.965,1.965,0,0,0-.737,1.686V15.66a9.028,9.028,0,0,0,.316,1.37c.105.211.211.316.316.527a1.789,1.789,0,0,0,.632.632,5.048,5.048,0,0,0,1.686.737,8.775,8.775,0,0,0,2.318.316,4.781,4.781,0,0,0,2.739-.632v1.9h2.844V11.34l.948-.527a4.285,4.285,0,0,1,1.054-.211.387.387,0,0,0,.316-.105h.527a4.755,4.755,0,0,1,2.634.737v5.373a.8.8,0,0,1-.105.421,1.981,1.981,0,0,1-1.053.421,2.32,2.32,0,0,1-.843.105h-.843a.8.8,0,0,1-.421-.105l-.527-.211v1.9c.211,0,.527.105.843.105a22.653,22.653,0,0,0,2.423-.211,3.972,3.972,0,0,0,1.9-.843,2.843,2.843,0,0,0,.948-1.159,1.5,1.5,0,0,0,.211-.632c0-.211.105-.421.105-.737V11.551a1.681,1.681,0,0,0-.843-1.475,8.573,8.573,0,0,0-2.318-.737,14.818,14.818,0,0,0-2.95-.316,4.024,4.024,0,0,0-2,.316L254,7.758h9.481V5.546ZM236.2,17.345a9.276,9.276,0,0,1-1.791-.211,2.384,2.384,0,0,1-1.053-.316,5.535,5.535,0,0,1-.211-1.9v-3.9l4.425,6.11A3.255,3.255,0,0,1,236.2,17.345Zm2.318-.843-4-6.11a5.288,5.288,0,0,1,1.264-.211,2.053,2.053,0,0,1,.843.105l.737.105.421.105.316.105.421.211Zm12.958,0-.105.211-.316.211A1.779,1.779,0,0,1,250,17.24a4.341,4.341,0,0,1-1.264.105,4.094,4.094,0,0,1-1.58-.211,2.427,2.427,0,0,1-1.159-.421c-.105-.105-.105-.211-.105-.421V10.919a6.215,6.215,0,0,1,2.634-.737,3.953,3.953,0,0,1,1.054.105,2.1,2.1,0,0,1,.948.211.8.8,0,0,1,.421.211,2.3,2.3,0,0,0,.527.316Z" transform="translate(12.211 0.143)"/>
        <path id="Path_124" data-name="Path 124" class="cls-1" d="M287.334,7.7h0V5.8h0V5.589H277.326l-.737-.948-1.37-1.791A6.752,6.752,0,0,0,272.585.637,6.267,6.267,0,0,0,269.952-.1a11.19,11.19,0,0,0-2,.421,3,3,0,0,0-1.475.948l-.316.316c-.211.211-.316.316-.316.421a.789.789,0,0,0-.105.527V4.219a4.56,4.56,0,0,0,.105.527c0,.105.105.211.211.316l.211.316.105.105H265V7.59h.948V20.127h2.844V7.7h14.644v1.58l-.106-.105c-.105,0-.105-.105-.211-.105h-.527a6.875,6.875,0,0,0-1.791.211l-.632.316c-.211.105-.421.316-.632.421l-.316-.316a1.45,1.45,0,0,0-.421-.316,5.927,5.927,0,0,0-1.053-.211,5.672,5.672,0,0,0-1.159-.105h-.738a6.165,6.165,0,0,0-2.318.527,1.99,1.99,0,0,0-1.159,1.9v3.9l-.105,1.686a2.281,2.281,0,0,0,1.053,2,7.856,7.856,0,0,0,1.264.737,3.909,3.909,0,0,0,.948.211,1.145,1.145,0,0,1,.527.105h.948a16.286,16.286,0,0,0,3.266-.421v-1.58a7.764,7.764,0,0,1-2.844.632,5.111,5.111,0,0,1-2.212-.843v-5.9a1.274,1.274,0,0,1,.632-1.264,2.1,2.1,0,0,1,.948-.211,1.565,1.565,0,0,1,1.37.632v3.371h2.739V11.172l.737-.421a5.938,5.938,0,0,1,.737-.105,3.635,3.635,0,0,1,1.264.105v9.376h2.844V7.7ZM268.687,5.273c-.105-.105-.105-.211-.105-.421a3.965,3.965,0,0,1-.421-1.264,1.4,1.4,0,0,1,.316-.843l.211-.316c0-.105.105-.105.211-.211.106,0,.211-.105.421-.105a5.343,5.343,0,0,1,.948-.211h.527c.211,0,.316.105.526.211a3.285,3.285,0,0,1,1.264.737c0,.105.211.211.316.421l.421.421a7.681,7.681,0,0,1,.948,1.053,3.787,3.787,0,0,1,.527.948h-5.9C268.792,5.483,268.687,5.378,268.687,5.273Z" transform="translate(14.168 0.1)"/>
      </g>
    </g>
  </g>
</svg>
