<?xml version="1.0" encoding="utf-8"?>
<!-- Generator: Adobe Illustrator 22.1.0, SVG Export Plug-In . SVG Version: 6.00 Build 0)  -->
<svg version="1.1" id="Layer_1" xmlns="http://www.w3.org/2000/svg" xmlns:xlink="http://www.w3.org/1999/xlink" x="0px" y="0px"
	 viewBox="0 0 62.5 51.2" style="enable-background:new 0 0 62.5 51.2;" xml:space="preserve">
<style type="text/css">
	.st0{fill:#00AEEF;}
</style>
<circle class="st0" cx="44" cy="34.5" r="1"/>
<path id="Path_630" class="st0" d="M28.1,33.3l1.8-6.9h0.7v-1.8H15.7l-0.5-1.8h-4.4v1.8h3l3,11.1h0.3c-0.1,0.2-0.1,0.5-0.1,0.7
	c0,1.4,1.2,2.6,2.6,2.6s2.6-1.2,2.6-2.6c0-0.3,0-0.5-0.1-0.7h1.8c-0.1,0.2-0.1,0.5-0.1,0.7c0,1.4,1.2,2.6,2.6,2.6
	c1.4,0,2.6-1.2,2.6-2.6c0-1.4-1.2-2.6-2.6-2.6h-8.1l-0.1-0.5L28.1,33.3z M21.1,31.5v-1.6h2v1.6H21.1z M25,31.5v-1.6h2.1l-0.4,1.6H25
	z M28,26.4L27.6,28H25v-1.6H28z M23.1,26.4V28h-2v-1.6H23.1z M19.3,26.4V28h-2.6l-0.4-1.6H19.3z M20.3,36.4c0,0.4-0.3,0.7-0.7,0.7
	c-0.4,0-0.7-0.3-0.7-0.7c0-0.4,0.3-0.7,0.7-0.7l0,0C20,35.7,20.3,36,20.3,36.4z M27,36.4c0,0.4-0.3,0.7-0.7,0.7
	c-0.4,0-0.7-0.3-0.7-0.7c0-0.4,0.3-0.7,0.7-0.7l0,0C26.7,35.7,27,36,27,36.4z M17.6,31.5l-0.4-1.6h2.1v1.6H17.6z"/>
<path id="Path_631" class="st0" d="M49.4,24.1l-2.1-3.4h-1.5l-2.1,3.4h-1.5v5.5h8.7v-5.5L49.4,24.1z M46.6,22.9l0.7,1.2h-1.4
	L46.6,22.9z M49.1,27.8h-5v-1.9h5V27.8z"/>
<path id="Path_632" class="st0" d="M58.9,0H3.6L0,3.8v11.9l3.6,3.6h4.8l2.6-2.6l2.6,2.6h4.8l2.6-2.6l2.6,2.6h4.8l2.6-2.6l2.6,2.6
	h4.8l2.7-2.6l2.7,2.6h4.8l2.7-2.6l2.7,2.6H59l3.6-3.6V3.8L58.9,0z M7.6,17.5H4.3L1.8,15V8.1h8.3V15L7.6,17.5z M17.7,17.5h-3.3L12,15
	V8.1h8.3V15L17.7,17.5z M27.9,17.5h-3.3L22.1,15V8.1h8.3V15L27.9,17.5z M38,17.5h-3.3L32.2,15V8.1h8.3V15L38,17.5z M48.1,17.5h-3.3
	L42.3,15V8.1h8.3V15L48.1,17.5z M60.7,15l-2.5,2.5h-3.3L52.4,15V8.1h8.3L60.7,15z M1.8,6.2V4.6l2.5-2.7h53.8l2.5,2.7v1.7H1.8z"/>
<rect id="Rectangle_284" x="59.4" y="20.1" class="st0" width="1.8" height="23.5"/>
<rect id="Rectangle_285" x="1.3" y="20.2" class="st0" width="1.8" height="23.4"/>
<path id="Path_633" class="st0" d="M9.3,20.8H7.5v21.6h26.4l0-21.8h-1.8v20H9.3V20.8z"/>
<path id="Path_634" class="st0" d="M55,20.8h-1.8v24.3H40.1V20.8h-1.8v24.3H0v6.1h62.5v-6.1H55V20.8z M60.7,46.9v2.5H1.8v-2.5H60.7z
	"/>
</svg>
